<svg xmlns="http://www.w3.org/2000/svg" xmlns:xlink="http://www.w3.org/1999/xlink" width="1366" zoomAndPan="magnify" viewBox="0 0 1024.5 576" height="768" preserveAspectRatio="xMidYMid meet" version="1.0"><defs><g/><clipPath id="7a251474cb"><path d="M 48.40625 72 L 996 72 L 996 516.65625 L 48.40625 516.65625 Z M 48.40625 72 " clip-rule="nonzero"/></clipPath><clipPath id="6abfab6897"><path d="M 989.710938 516.246094 L 54.773438 516.246094 C 51.507812 516.246094 48.8125 513.554688 48.8125 510.289062 L 48.8125 78.207031 C 48.8125 74.945312 51.507812 72.25 54.773438 72.25 L 989.628906 72.25 C 992.894531 72.25 995.585938 74.945312 995.585938 78.207031 L 995.585938 510.207031 C 995.667969 513.554688 992.976562 516.246094 989.710938 516.246094 Z M 989.710938 516.246094 " clip-rule="nonzero"/></clipPath><clipPath id="ac1aa81f01"><path d="M 46.773438 70.210938 L 997.707031 70.210938 L 997.707031 518.289062 L 46.773438 518.289062 Z M 46.773438 70.210938 " clip-rule="nonzero"/></clipPath><clipPath id="932c0a6298"><path d="M 989.710938 74.046875 C 991.996094 74.046875 993.871094 75.921875 993.871094 78.207031 L 993.871094 510.289062 C 993.871094 512.574219 991.996094 514.453125 989.710938 514.453125 L 54.773438 514.453125 C 52.488281 514.453125 50.609375 512.574219 50.609375 510.289062 L 50.609375 78.207031 C 50.609375 75.921875 52.488281 74.046875 54.773438 74.046875 L 989.710938 74.046875 M 989.710938 70.210938 L 54.773438 70.210938 C 50.363281 70.210938 46.773438 73.800781 46.773438 78.207031 L 46.773438 510.289062 C 46.773438 514.695312 50.363281 518.289062 54.773438 518.289062 L 989.710938 518.289062 C 994.117188 518.289062 997.707031 514.695312 997.707031 510.289062 L 997.707031 78.207031 C 997.707031 73.800781 994.117188 70.210938 989.710938 70.210938 Z M 989.710938 70.210938 " clip-rule="nonzero"/></clipPath><clipPath id="9f95722b2e"><path d="M 28 50.539062 L 975.59375 50.539062 L 975.59375 495 L 28 495 Z M 28 50.539062 " clip-rule="nonzero"/></clipPath><clipPath id="f522f4b7d4"><path d="M 969.226562 494.949219 L 34.289062 494.949219 C 31.027344 494.949219 28.332031 492.253906 28.332031 488.988281 L 28.332031 56.910156 C 28.332031 53.644531 31.027344 50.949219 34.289062 50.949219 L 969.148438 50.949219 C 972.410156 50.949219 975.105469 53.644531 975.105469 56.910156 L 975.105469 488.90625 C 975.1875 492.253906 972.492188 494.949219 969.226562 494.949219 Z M 969.226562 494.949219 " clip-rule="nonzero"/></clipPath><clipPath id="84e4ae9a11"><path d="M 26.292969 48.910156 L 977.226562 48.910156 L 977.226562 496.988281 L 26.292969 496.988281 Z M 26.292969 48.910156 " clip-rule="nonzero"/></clipPath><clipPath id="2052bc3dec"><path d="M 969.226562 52.746094 C 971.511719 52.746094 973.390625 54.625 973.390625 56.910156 L 973.390625 488.988281 C 973.390625 491.273438 971.511719 493.152344 969.226562 493.152344 L 34.289062 493.152344 C 32.003906 493.152344 30.128906 491.273438 30.128906 488.988281 L 30.128906 56.910156 C 30.128906 54.625 32.003906 52.746094 34.289062 52.746094 L 969.226562 52.746094 M 969.226562 48.910156 L 34.289062 48.910156 C 29.882812 48.910156 26.292969 52.5 26.292969 56.910156 L 26.292969 488.988281 C 26.292969 493.398438 29.882812 496.988281 34.289062 496.988281 L 969.226562 496.988281 C 973.636719 496.988281 977.226562 493.398438 977.226562 488.988281 L 977.226562 56.910156 C 977.226562 52.5 973.636719 48.910156 969.226562 48.910156 Z M 969.226562 48.910156 " clip-rule="nonzero"/></clipPath><clipPath id="83f2f899a9"><path d="M 60 77 L 91 77 L 91 108 L 60 108 Z M 60 77 " clip-rule="nonzero"/></clipPath><clipPath id="b60cc162c3"><path d="M 75.761719 71.511719 L 96.964844 92.714844 L 75.761719 113.917969 L 54.558594 92.714844 Z M 75.761719 71.511719 " clip-rule="nonzero"/></clipPath><clipPath id="ec1534b90f"><path d="M 75.761719 71.511719 L 96.964844 92.714844 L 75.761719 113.917969 L 54.558594 92.714844 Z M 75.761719 71.511719 " clip-rule="nonzero"/></clipPath><clipPath id="fd0136433e"><path d="M 70 86 L 82 86 L 82 98 L 70 98 Z M 70 86 " clip-rule="nonzero"/></clipPath><clipPath id="ab1149e05a"><path d="M 75.761719 71.511719 L 96.964844 92.714844 L 75.761719 113.917969 L 54.558594 92.714844 Z M 75.761719 71.511719 " clip-rule="nonzero"/></clipPath><clipPath id="a978db4b38"><path d="M 75.761719 71.511719 L 96.964844 92.714844 L 75.761719 113.917969 L 54.558594 92.714844 Z M 75.761719 71.511719 " clip-rule="nonzero"/></clipPath><clipPath id="3c0eea68c4"><path d="M 150.546875 77.691406 L 179.78125 77.691406 L 179.78125 106.929688 L 150.546875 106.929688 Z M 150.546875 77.691406 " clip-rule="nonzero"/></clipPath><clipPath id="d0478814ad"><path d="M 105.367188 77.691406 L 135.351562 77.691406 L 135.351562 107.679688 L 105.367188 107.679688 Z M 105.367188 77.691406 " clip-rule="nonzero"/></clipPath><clipPath id="8cd5ac87dc"><path d="M 26.292969 134.628906 L 977.578125 134.628906 L 977.578125 142.125 L 26.292969 142.125 Z M 26.292969 134.628906 " clip-rule="nonzero"/></clipPath></defs><g clip-path="url(#7a251474cb)"><g clip-path="url(#6abfab6897)"><path fill="#272727" d="M 46.773438 70.210938 L 997.707031 70.210938 L 997.707031 518.289062 L 46.773438 518.289062 Z M 46.773438 70.210938 " fill-opacity="1" fill-rule="nonzero"/></g></g><g clip-path="url(#ac1aa81f01)"><g clip-path="url(#932c0a6298)"><path fill="#272727" d="M 46.773438 70.210938 L 997.707031 70.210938 L 997.707031 518.289062 L 46.773438 518.289062 Z M 46.773438 70.210938 " fill-opacity="1" fill-rule="nonzero"/></g></g><g clip-path="url(#9f95722b2e)"><g clip-path="url(#f522f4b7d4)"><path fill="#f4f4f4" d="M 26.292969 48.910156 L 977.226562 48.910156 L 977.226562 496.988281 L 26.292969 496.988281 Z M 26.292969 48.910156 " fill-opacity="1" fill-rule="nonzero"/></g></g><g clip-path="url(#84e4ae9a11)"><g clip-path="url(#2052bc3dec)"><path fill="#272727" d="M 26.292969 48.910156 L 977.226562 48.910156 L 977.226562 496.988281 L 26.292969 496.988281 Z M 26.292969 48.910156 " fill-opacity="1" fill-rule="nonzero"/></g></g><g clip-path="url(#83f2f899a9)"><g clip-path="url(#b60cc162c3)"><g clip-path="url(#ec1534b90f)"><path fill="#272727" d="M 65.210938 103.171875 C 59.390625 97.351562 59.390625 87.882812 65.207031 82.066406 C 71.027344 76.246094 80.496094 76.246094 86.316406 82.066406 C 92.132812 87.882812 92.132812 97.351562 86.3125 103.171875 C 80.496094 108.988281 71.027344 108.988281 65.210938 103.171875 Z M 85.269531 83.109375 C 80.027344 77.867188 71.496094 77.867188 66.253906 83.109375 C 61.011719 88.351562 61.011719 96.882812 66.253906 102.125 C 71.496094 107.367188 80.027344 107.367188 85.269531 102.125 C 90.511719 96.882812 90.511719 88.351562 85.269531 83.109375 Z M 85.269531 83.109375 " fill-opacity="1" fill-rule="nonzero"/></g></g></g><g clip-path="url(#fd0136433e)"><g clip-path="url(#ab1149e05a)"><g clip-path="url(#a978db4b38)"><path fill="#272727" d="M 80.089844 87.148438 C 76.878906 90.359375 73.667969 93.570312 70.457031 96.78125 C 69.824219 97.414062 70.804688 98.390625 71.433594 97.761719 C 74.644531 94.550781 77.855469 91.339844 81.066406 88.128906 C 81.699219 87.496094 80.71875 86.515625 80.089844 87.148438 Z M 80.089844 87.148438 " fill-opacity="1" fill-rule="nonzero"/><path fill="#272727" d="M 81.066406 96.78125 C 77.855469 93.570312 74.644531 90.359375 71.433594 87.148438 C 70.804688 86.515625 69.824219 87.496094 70.457031 88.128906 C 73.667969 91.339844 76.878906 94.550781 80.089844 97.761719 C 80.71875 98.390625 81.699219 97.414062 81.066406 96.78125 Z M 81.066406 96.78125 " fill-opacity="1" fill-rule="nonzero"/></g></g></g><g clip-path="url(#3c0eea68c4)"><path fill="#272727" d="M 165.269531 107.140625 C 157.152344 107.140625 150.546875 100.535156 150.546875 92.417969 C 150.546875 84.296875 157.152344 77.691406 165.269531 77.691406 C 173.390625 77.691406 179.996094 84.296875 179.996094 92.417969 C 179.996094 100.535156 173.390625 107.140625 165.269531 107.140625 Z M 165.269531 79.152344 C 157.953125 79.152344 152.003906 85.101562 152.003906 92.417969 C 152.003906 99.734375 157.953125 105.683594 165.269531 105.683594 C 172.585938 105.683594 178.535156 99.734375 178.535156 92.417969 C 178.535156 85.101562 172.585938 79.152344 165.269531 79.152344 Z M 165.269531 79.152344 " fill-opacity="1" fill-rule="nonzero"/></g><path fill="#272727" d="M 171.878906 91.621094 C 167.398438 91.621094 162.917969 91.621094 158.4375 91.621094 C 157.554688 91.621094 157.554688 92.988281 158.4375 92.988281 C 162.917969 92.988281 167.398438 92.988281 171.878906 92.988281 C 172.757812 92.988281 172.757812 91.621094 171.878906 91.621094 Z M 171.878906 91.621094 " fill-opacity="1" fill-rule="nonzero"/><g clip-path="url(#d0478814ad)"><path fill="#272727" d="M 120.292969 107.539062 C 112.0625 107.539062 105.367188 100.847656 105.367188 92.617188 C 105.367188 84.386719 112.0625 77.691406 120.292969 77.691406 C 128.519531 77.691406 135.214844 84.386719 135.214844 92.617188 C 135.214844 100.847656 128.519531 107.539062 120.292969 107.539062 Z M 120.292969 79.171875 C 112.878906 79.171875 106.84375 85.203125 106.84375 92.617188 C 106.84375 100.03125 112.878906 106.0625 120.292969 106.0625 C 127.707031 106.0625 133.738281 100.03125 133.738281 92.617188 C 133.738281 85.203125 127.707031 79.171875 120.292969 79.171875 Z M 120.292969 79.171875 " fill-opacity="1" fill-rule="nonzero"/></g><path fill="#272727" d="M 119.484375 85.691406 C 119.484375 90.230469 119.484375 94.773438 119.484375 99.3125 C 119.484375 100.207031 120.867188 100.207031 120.867188 99.3125 C 120.867188 94.773438 120.867188 90.230469 120.867188 85.691406 C 120.867188 84.796875 119.484375 84.796875 119.484375 85.691406 Z M 119.484375 85.691406 " fill-opacity="1" fill-rule="nonzero"/><path fill="#272727" d="M 126.988281 91.808594 C 122.445312 91.808594 117.90625 91.808594 113.363281 91.808594 C 112.472656 91.808594 112.472656 93.195312 113.363281 93.195312 C 117.90625 93.195312 122.445312 93.195312 126.988281 93.195312 C 127.882812 93.195312 127.882812 91.808594 126.988281 91.808594 Z M 126.988281 91.808594 " fill-opacity="1" fill-rule="nonzero"/><g clip-path="url(#8cd5ac87dc)"><path fill="#272727" d="M 26.292969 134.628906 L 977.578125 134.628906 L 977.578125 142.125 L 26.292969 142.125 Z M 26.292969 134.628906 " fill-opacity="1" fill-rule="nonzero"/></g><g fill="#272727" fill-opacity="1"><g transform="translate(378.086471, 269.068044)"><g><path d="M 30.867188 0 L 30.867188 -79.558594 L 49.980469 0 L 72.453125 0 L 91.566406 -80.074219 L 91.566406 0 L 114.6875 0 L 114.6875 -98.542969 L 77.359375 -98.542969 L 61.21875 -27.636719 L 44.945312 -98.542969 L 7.75 -98.542969 L 7.75 0 Z M 30.867188 0 "/></g></g></g><g fill="#272727" fill-opacity="1"><g transform="translate(500.650341, 269.068044)"><g><path d="M 42.363281 1.550781 C 63.027344 1.550781 74.261719 -10.847656 78.394531 -25.3125 L 56.566406 -25.3125 C 54.761719 -20.792969 50.109375 -17.046875 43.523438 -17.046875 C 38.097656 -17.046875 33.707031 -18.726562 30.609375 -22.601562 C 28.800781 -24.796875 27.378906 -28.414062 26.863281 -32.03125 L 79.558594 -32.03125 L 79.558594 -35.773438 C 79.558594 -64.058594 60.960938 -74.777344 41.714844 -74.777344 C 15.238281 -74.777344 4.132812 -54.628906 4.132812 -36.03125 C 4.132812 -14.335938 19.113281 1.550781 42.363281 1.550781 Z M 27.507812 -47.398438 C 27.765625 -49.078125 28.414062 -51.53125 30.867188 -53.984375 C 33.964844 -57.085938 38.097656 -58.246094 42.492188 -58.246094 C 46.882812 -58.246094 51.015625 -57.085938 54.113281 -53.984375 C 56.4375 -51.660156 57.214844 -49.078125 57.601562 -47.398438 Z M 27.507812 -47.398438 "/></g></g></g><g fill="#272727" fill-opacity="1"><g transform="translate(584.339899, 269.068044)"><g><path d="M 38.097656 0 L 38.097656 -17.566406 L 32.675781 -17.566406 C 30.996094 -17.566406 28.414062 -18.082031 28.414062 -22.085938 L 28.414062 -98.542969 L 6.714844 -98.542969 L 6.714844 -14.59375 C 6.714844 -5.296875 12.785156 0 23.503906 0 Z M 38.097656 0 "/></g></g></g><g fill="#272727" fill-opacity="1"><g transform="translate(154.270133, 398.218514)"><g><path d="M 71.03125 0 L 71.03125 -20.664062 L 30.867188 -20.664062 L 30.867188 -98.542969 L 7.75 -98.542969 L 7.75 0 Z M 71.03125 0 "/></g></g></g><g fill="#272727" fill-opacity="1"><g transform="translate(226.336144, 398.218514)"><g><path d="M 28.285156 1.550781 C 34.355469 1.550781 40.164062 0.644531 44.429688 -2.324219 C 46.753906 -3.875 48.429688 -6.070312 49.59375 -8.910156 L 49.59375 0 L 71.292969 0 L 71.292969 -34.742188 C 71.292969 -48.300781 71.292969 -59.796875 62.25 -67.546875 C 56.4375 -72.582031 48.042969 -74.777344 39.519531 -74.777344 C 24.796875 -74.777344 9.6875 -67.160156 6.972656 -48.820312 L 28.542969 -48.820312 C 29.574219 -55.019531 34.355469 -58.503906 39.390625 -58.503906 C 42.621094 -58.503906 45.074219 -57.730469 46.753906 -55.921875 C 48.429688 -53.984375 49.464844 -51.144531 49.722656 -47.398438 L 30.738281 -44.039062 C 25.183594 -43.007812 18.597656 -41.585938 13.433594 -38.230469 C 8.136719 -34.742188 4.261719 -29.316406 4.261719 -20.535156 C 4.261719 -5.8125 15.109375 1.550781 28.285156 1.550781 Z M 34.613281 -14.851562 C 29.964844 -14.851562 25.960938 -16.660156 25.960938 -21.308594 C 25.960938 -23.375 26.734375 -24.796875 27.898438 -25.960938 C 29.703125 -27.636719 32.03125 -28.542969 36.808594 -29.445312 L 50.109375 -32.03125 C 49.851562 -24.023438 48.429688 -19.371094 42.492188 -16.660156 C 39.90625 -15.5 37.066406 -14.851562 34.613281 -14.851562 Z M 34.613281 -14.851562 "/></g></g></g><g fill="#272727" fill-opacity="1"><g transform="translate(303.955627, 398.218514)"><g><path d="M 40.035156 1.550781 C 59.539062 1.550781 71.421875 -8.265625 71.421875 -22.859375 C 71.421875 -39.90625 55.40625 -42.878906 42.621094 -45.203125 C 34.226562 -46.753906 27.25 -48.042969 27.25 -52.953125 C 27.25 -56.308594 30.738281 -58.503906 36.03125 -58.503906 C 41.585938 -58.503906 47.140625 -55.921875 49.207031 -48.949219 L 69.742188 -48.949219 C 67.027344 -65.609375 53.984375 -74.777344 36.164062 -74.777344 C 20.921875 -74.777344 6.714844 -68.578125 6.714844 -52.433594 C 6.714844 -35.128906 22.472656 -31.898438 35 -29.445312 C 43.265625 -27.765625 50.109375 -26.347656 50.109375 -21.4375 C 50.109375 -17.304688 45.589844 -14.851562 39.777344 -14.851562 C 33.578125 -14.851562 27.25 -17.953125 24.796875 -25.3125 L 3.746094 -25.3125 C 6.199219 -4.90625 24.667969 1.550781 40.035156 1.550781 Z M 40.035156 1.550781 "/></g></g></g><g fill="#272727" fill-opacity="1"><g transform="translate(379.896153, 398.218514)"><g><path d="M 28.800781 0 L 28.800781 -35.128906 L 54.628906 0 L 80.460938 0 L 48.691406 -41.714844 L 78.78125 -73.226562 L 52.046875 -73.226562 L 28.800781 -47.527344 L 28.800781 -98.542969 L 7.101562 -98.542969 L 7.101562 0 Z M 28.800781 0 "/></g></g></g><g fill="#272727" fill-opacity="1"><g transform="translate(460.486117, 398.218514)"><g><path d="M 42.621094 1.550781 C 65.867188 1.550781 81.105469 -13.820312 81.105469 -37.066406 C 81.105469 -59.410156 65.609375 -74.777344 42.621094 -74.777344 C 19.632812 -74.777344 4.132812 -59.539062 4.132812 -37.066406 C 4.132812 -13.691406 19.761719 1.550781 42.621094 1.550781 Z M 42.621094 -17.046875 C 32.933594 -17.046875 26.476562 -24.796875 26.476562 -37.066406 C 26.476562 -48.5625 32.933594 -56.308594 42.621094 -56.308594 C 52.433594 -56.308594 58.503906 -48.429688 58.503906 -37.066406 C 58.503906 -25.054688 52.433594 -17.046875 42.621094 -17.046875 Z M 42.621094 -17.046875 "/></g></g></g><g fill="#272727" fill-opacity="1"><g transform="translate(545.725456, 398.218514)"><g><path d="M 44.6875 0 L 55.535156 -44.039062 L 65.867188 0 L 86.402344 0 L 109.777344 -73.226562 L 86.789062 -73.226562 L 75.683594 -30.867188 L 64.574219 -73.226562 L 45.976562 -73.226562 L 35 -30.609375 L 24.28125 -73.226562 L 1.164062 -73.226562 L 24.023438 0 Z M 44.6875 0 "/></g></g></g><g fill="#272727" fill-opacity="1"><g transform="translate(656.794939, 398.218514)"><g><path d="M 40.035156 1.550781 C 59.539062 1.550781 71.421875 -8.265625 71.421875 -22.859375 C 71.421875 -39.90625 55.40625 -42.878906 42.621094 -45.203125 C 34.226562 -46.753906 27.25 -48.042969 27.25 -52.953125 C 27.25 -56.308594 30.738281 -58.503906 36.03125 -58.503906 C 41.585938 -58.503906 47.140625 -55.921875 49.207031 -48.949219 L 69.742188 -48.949219 C 67.027344 -65.609375 53.984375 -74.777344 36.164062 -74.777344 C 20.921875 -74.777344 6.714844 -68.578125 6.714844 -52.433594 C 6.714844 -35.128906 22.472656 -31.898438 35 -29.445312 C 43.265625 -27.765625 50.109375 -26.347656 50.109375 -21.4375 C 50.109375 -17.304688 45.589844 -14.851562 39.777344 -14.851562 C 33.578125 -14.851562 27.25 -17.953125 24.796875 -25.3125 L 3.746094 -25.3125 C 6.199219 -4.90625 24.667969 1.550781 40.035156 1.550781 Z M 40.035156 1.550781 "/></g></g></g><g fill="#272727" fill-opacity="1"><g transform="translate(732.735466, 398.218514)"><g><path d="M 28.800781 0 L 28.800781 -35.128906 L 54.628906 0 L 80.460938 0 L 48.691406 -41.714844 L 78.78125 -73.226562 L 52.046875 -73.226562 L 28.800781 -47.527344 L 28.800781 -98.542969 L 7.101562 -98.542969 L 7.101562 0 Z M 28.800781 0 "/></g></g></g><g fill="#272727" fill-opacity="1"><g transform="translate(813.325399, 398.218514)"><g><path d="M 17.953125 -78.265625 C 24.667969 -78.265625 30.222656 -82.398438 30.222656 -89.371094 C 30.222656 -96.21875 24.667969 -100.609375 17.953125 -100.609375 C 11.234375 -100.609375 5.683594 -96.21875 5.683594 -89.371094 C 5.683594 -82.398438 11.234375 -78.265625 17.953125 -78.265625 Z M 28.800781 0 L 28.800781 -73.226562 L 7.101562 -73.226562 L 7.101562 0 Z M 28.800781 0 "/></g></g></g><g fill="#272727" fill-opacity="1"><g transform="translate(332.901466, 463.861262)"><g><path d="M 21.671875 -29.3125 L 22.828125 -29.3125 L 21.203125 -21.671875 L 19.875 -21.671875 C 19.800781 -24.023438 19.375 -25.71875 18.59375 -26.75 C 17.820312 -27.789062 16.609375 -28.3125 14.953125 -28.3125 C 14.148438 -28.3125 13.410156 -28.195312 12.734375 -27.96875 C 12.054688 -27.75 11.476562 -27.429688 11 -27.015625 C 10.53125 -26.609375 10.15625 -26.125 9.875 -25.5625 C 9.601562 -25.007812 9.46875 -24.410156 9.46875 -23.765625 C 9.46875 -22.828125 9.726562 -21.992188 10.25 -21.265625 C 10.769531 -20.546875 11.421875 -19.867188 12.203125 -19.234375 C 12.992188 -18.597656 13.847656 -17.957031 14.765625 -17.3125 C 15.691406 -16.664062 16.546875 -15.953125 17.328125 -15.171875 C 18.117188 -14.398438 18.773438 -13.519531 19.296875 -12.53125 C 19.816406 -11.550781 20.078125 -10.398438 20.078125 -9.078125 C 20.078125 -7.765625 19.816406 -6.53125 19.296875 -5.375 C 18.773438 -4.226562 18.066406 -3.226562 17.171875 -2.375 C 16.285156 -1.519531 15.242188 -0.84375 14.046875 -0.34375 C 12.859375 0.144531 11.582031 0.390625 10.21875 0.390625 C 7.394531 0.390625 4.921875 -0.722656 2.796875 -2.953125 L 1.984375 0 L 0.625 0 L 2.25 -9.859375 L 3.53125 -9.859375 C 3.71875 -7.191406 4.378906 -5.160156 5.515625 -3.765625 C 6.648438 -2.367188 8.226562 -1.671875 10.25 -1.671875 C 11.1875 -1.671875 12.039062 -1.804688 12.8125 -2.078125 C 13.59375 -2.347656 14.257812 -2.722656 14.8125 -3.203125 C 15.363281 -3.679688 15.800781 -4.25 16.125 -4.90625 C 16.457031 -5.570312 16.625 -6.289062 16.625 -7.0625 C 16.625 -8.15625 16.347656 -9.113281 15.796875 -9.9375 C 15.253906 -10.769531 14.582031 -11.546875 13.78125 -12.265625 C 12.976562 -12.992188 12.097656 -13.691406 11.140625 -14.359375 C 10.179688 -15.035156 9.300781 -15.753906 8.5 -16.515625 C 7.695312 -17.285156 7.023438 -18.128906 6.484375 -19.046875 C 5.941406 -19.960938 5.671875 -21.015625 5.671875 -22.203125 C 5.671875 -23.316406 5.910156 -24.363281 6.390625 -25.34375 C 6.867188 -26.332031 7.519531 -27.1875 8.34375 -27.90625 C 9.175781 -28.632812 10.148438 -29.210938 11.265625 -29.640625 C 12.378906 -30.066406 13.566406 -30.28125 14.828125 -30.28125 C 16.046875 -30.28125 17.132812 -30.070312 18.09375 -29.65625 C 19.050781 -29.25 19.984375 -28.59375 20.890625 -27.6875 Z M 21.671875 -29.3125 "/></g></g></g><g fill="#272727" fill-opacity="1"><g transform="translate(356.12089, 463.861262)"><g><path d="M 7.265625 0.390625 C 6.378906 0.390625 5.554688 0.21875 4.796875 -0.125 C 4.035156 -0.476562 3.367188 -0.988281 2.796875 -1.65625 C 2.222656 -2.332031 1.769531 -3.15625 1.4375 -4.125 C 1.101562 -5.101562 0.9375 -6.203125 0.9375 -7.421875 C 0.9375 -9.097656 1.25 -10.75 1.875 -12.375 C 2.507812 -14.007812 3.34375 -15.460938 4.375 -16.734375 C 5.414062 -18.003906 6.601562 -19.023438 7.9375 -19.796875 C 9.269531 -20.578125 10.648438 -20.96875 12.078125 -20.96875 C 13.003906 -20.96875 13.863281 -20.789062 14.65625 -20.4375 C 15.445312 -20.09375 16.117188 -19.585938 16.671875 -18.921875 C 17.234375 -18.265625 17.675781 -17.476562 18 -16.5625 C 18.320312 -15.644531 18.484375 -14.628906 18.484375 -13.515625 C 18.484375 -11.878906 18.160156 -10.234375 17.515625 -8.578125 C 16.867188 -6.921875 16.019531 -5.429688 14.96875 -4.109375 C 13.914062 -2.796875 12.71875 -1.71875 11.375 -0.875 C 10.03125 -0.03125 8.660156 0.390625 7.265625 0.390625 Z M 7.5 -1.546875 C 8.375 -1.546875 9.242188 -2 10.109375 -2.90625 C 10.984375 -3.8125 11.757812 -4.957031 12.4375 -6.34375 C 13.125 -7.726562 13.679688 -9.234375 14.109375 -10.859375 C 14.535156 -12.492188 14.75 -14.050781 14.75 -15.53125 C 14.75 -16.90625 14.507812 -17.847656 14.03125 -18.359375 C 13.550781 -18.878906 12.898438 -19.140625 12.078125 -19.140625 C 11.503906 -19.140625 10.925781 -18.9375 10.34375 -18.53125 C 9.757812 -18.132812 9.207031 -17.585938 8.6875 -16.890625 C 8.175781 -16.191406 7.691406 -15.390625 7.234375 -14.484375 C 6.785156 -13.578125 6.390625 -12.617188 6.046875 -11.609375 C 5.710938 -10.597656 5.457031 -9.566406 5.28125 -8.515625 C 5.101562 -7.472656 5.015625 -6.472656 5.015625 -5.515625 C 5.015625 -4.066406 5.242188 -3.039062 5.703125 -2.4375 C 6.171875 -1.84375 6.769531 -1.546875 7.5 -1.546875 Z M 7.5 -1.546875 "/></g></g></g><g fill="#272727" fill-opacity="1"><g transform="translate(376.428181, 463.861262)"><g><path d="M 5.90625 -2.828125 C 5.226562 -0.191406 4.550781 1.957031 3.875 3.625 C 3.207031 5.300781 2.484375 6.617188 1.703125 7.578125 C 0.929688 8.535156 0.0976562 9.191406 -0.796875 9.546875 C -1.691406 9.910156 -2.695312 10.09375 -3.8125 10.09375 C -4.894531 10.09375 -5.785156 9.804688 -6.484375 9.234375 C -7.179688 8.671875 -7.53125 7.972656 -7.53125 7.140625 C -7.53125 6.492188 -7.359375 5.984375 -7.015625 5.609375 C -6.679688 5.234375 -6.21875 5.046875 -5.625 5.046875 C -5.082031 5.046875 -4.707031 5.1875 -4.5 5.46875 C -4.289062 5.757812 -4.113281 6.070312 -3.96875 6.40625 C -3.832031 6.738281 -3.671875 7.046875 -3.484375 7.328125 C -3.304688 7.617188 -2.960938 7.765625 -2.453125 7.765625 C -1.847656 7.765625 -1.300781 7.453125 -0.8125 6.828125 C -0.320312 6.210938 0.0507812 5.398438 0.3125 4.390625 L 5.9375 -17.46875 L 2.21875 -17.46875 L 2.71875 -19.265625 L 6.40625 -19.265625 C 6.976562 -21.585938 7.597656 -23.5625 8.265625 -25.1875 C 8.941406 -26.820312 9.664062 -28.164062 10.4375 -29.21875 C 11.21875 -30.269531 12.046875 -31.035156 12.921875 -31.515625 C 13.804688 -31.992188 14.753906 -32.234375 15.765625 -32.234375 C 17.296875 -32.234375 18.550781 -31.914062 19.53125 -31.28125 C 20.507812 -30.644531 21 -29.847656 21 -28.890625 C 21 -28.296875 20.835938 -27.789062 20.515625 -27.375 C 20.191406 -26.957031 19.734375 -26.75 19.140625 -26.75 C 18.648438 -26.75 18.269531 -26.835938 18 -27.015625 C 17.726562 -27.203125 17.519531 -27.4375 17.375 -27.71875 C 17.226562 -28.007812 17.125 -28.304688 17.0625 -28.609375 C 17 -28.921875 16.914062 -29.21875 16.8125 -29.5 C 16.707031 -29.789062 16.550781 -30.023438 16.34375 -30.203125 C 16.132812 -30.390625 15.828125 -30.484375 15.421875 -30.484375 C 14.898438 -30.484375 14.382812 -30.203125 13.875 -29.640625 C 13.375 -29.085938 12.890625 -28.3125 12.421875 -27.3125 C 11.953125 -26.320312 11.507812 -25.140625 11.09375 -23.765625 C 10.6875 -22.390625 10.316406 -20.890625 9.984375 -19.265625 L 13.90625 -19.265625 L 13.359375 -17.46875 L 9.546875 -17.46875 Z M 5.90625 -2.828125 "/></g></g></g><g fill="#272727" fill-opacity="1"><g transform="translate(389.39689, 463.861262)"><g><path d="M 9.125 -17.359375 L 5.90625 -6.671875 C 5.457031 -5.273438 5.222656 -4.21875 5.203125 -3.5 C 5.203125 -3.257812 5.257812 -3.046875 5.375 -2.859375 C 5.488281 -2.679688 5.691406 -2.59375 5.984375 -2.59375 C 6.441406 -2.59375 6.929688 -2.769531 7.453125 -3.125 C 7.972656 -3.476562 8.472656 -3.894531 8.953125 -4.375 C 9.429688 -4.851562 9.859375 -5.34375 10.234375 -5.84375 C 10.609375 -6.34375 10.882812 -6.738281 11.0625 -7.03125 L 12.1875 -6.375 C 11.75 -5.488281 11.191406 -4.632812 10.515625 -3.8125 C 9.847656 -3 9.140625 -2.28125 8.390625 -1.65625 C 7.640625 -1.039062 6.878906 -0.546875 6.109375 -0.171875 C 5.347656 0.203125 4.65625 0.390625 4.03125 0.390625 C 3.125 0.390625 2.46875 0.195312 2.0625 -0.1875 C 1.664062 -0.582031 1.46875 -1.234375 1.46875 -2.140625 C 1.46875 -2.648438 1.554688 -3.34375 1.734375 -4.21875 C 1.921875 -5.101562 2.234375 -6.3125 2.671875 -7.84375 L 5.546875 -17.359375 L 2.21875 -17.359375 L 2.71875 -19.140625 L 6.09375 -19.140625 L 8.109375 -25.828125 L 11.6875 -25.828125 L 9.671875 -19.140625 L 13.90625 -19.140625 L 13.359375 -17.359375 Z M 9.125 -17.359375 "/></g></g></g><g fill="#272727" fill-opacity="1"><g transform="translate(403.569289, 463.861262)"><g><path d="M 15.796875 -3.765625 C 14.640625 -2.421875 13.425781 -1.390625 12.15625 -0.671875 C 10.882812 0.0351562 9.613281 0.390625 8.34375 0.390625 C 6.925781 0.390625 5.816406 -0.0664062 5.015625 -0.984375 C 4.210938 -1.910156 3.8125 -3.203125 3.8125 -4.859375 C 3.8125 -8.085938 5.476562 -11.957031 8.8125 -16.46875 L 8.734375 -16.578125 C 8.035156 -16.578125 7.453125 -16.679688 6.984375 -16.890625 C 6.523438 -17.097656 6.128906 -17.332031 5.796875 -17.59375 C 5.472656 -17.851562 5.1875 -18.082031 4.9375 -18.28125 C 4.695312 -18.488281 4.4375 -18.59375 4.15625 -18.59375 C 3.738281 -18.59375 3.53125 -18.375 3.53125 -17.9375 C 3.53125 -17.707031 3.597656 -17.5 3.734375 -17.3125 C 3.878906 -17.132812 4.035156 -16.953125 4.203125 -16.765625 C 4.378906 -16.585938 4.535156 -16.390625 4.671875 -16.171875 C 4.816406 -15.953125 4.890625 -15.6875 4.890625 -15.375 C 4.890625 -14.90625 4.707031 -14.519531 4.34375 -14.21875 C 3.988281 -13.925781 3.523438 -13.78125 2.953125 -13.78125 C 2.273438 -13.78125 1.753906 -13.988281 1.390625 -14.40625 C 1.035156 -14.820312 0.859375 -15.40625 0.859375 -16.15625 C 0.859375 -16.769531 0.984375 -17.367188 1.234375 -17.953125 C 1.492188 -18.535156 1.84375 -19.050781 2.28125 -19.5 C 2.726562 -19.957031 3.242188 -20.316406 3.828125 -20.578125 C 4.410156 -20.835938 5.007812 -20.96875 5.625 -20.96875 C 6.175781 -20.96875 6.628906 -20.882812 6.984375 -20.71875 C 7.347656 -20.550781 7.6875 -20.351562 8 -20.125 C 8.3125 -19.90625 8.613281 -19.710938 8.90625 -19.546875 C 9.207031 -19.378906 9.550781 -19.296875 9.9375 -19.296875 C 10.144531 -19.296875 10.332031 -19.332031 10.5 -19.40625 C 10.664062 -19.488281 10.867188 -19.644531 11.109375 -19.875 C 11.390625 -20.164062 11.671875 -20.421875 11.953125 -20.640625 C 12.242188 -20.859375 12.570312 -20.96875 12.9375 -20.96875 C 13.476562 -20.96875 13.75 -20.707031 13.75 -20.1875 C 13.75 -20.113281 13.734375 -20.03125 13.703125 -19.9375 C 13.679688 -19.84375 13.609375 -19.71875 13.484375 -19.5625 C 13.367188 -19.414062 13.207031 -19.21875 13 -18.96875 C 12.800781 -18.71875 12.519531 -18.390625 12.15625 -17.984375 C 11.40625 -17.097656 10.738281 -16.160156 10.15625 -15.171875 C 9.570312 -14.191406 9.082031 -13.203125 8.6875 -12.203125 C 8.300781 -11.210938 8.003906 -10.226562 7.796875 -9.25 C 7.597656 -8.28125 7.5 -7.367188 7.5 -6.515625 C 7.5 -5.253906 7.703125 -4.265625 8.109375 -3.546875 C 8.523438 -2.835938 9.109375 -2.484375 9.859375 -2.484375 C 10.554688 -2.484375 11.367188 -2.828125 12.296875 -3.515625 C 13.234375 -4.203125 14.234375 -5.164062 15.296875 -6.40625 C 15.242188 -6.945312 15.195312 -7.503906 15.15625 -8.078125 C 15.125 -8.648438 15.109375 -9.164062 15.109375 -9.625 C 15.109375 -11.019531 15.269531 -12.394531 15.59375 -13.75 C 15.914062 -15.113281 16.332031 -16.332031 16.84375 -17.40625 C 17.363281 -18.488281 17.957031 -19.351562 18.625 -20 C 19.300781 -20.644531 19.992188 -20.96875 20.703125 -20.96875 C 21.265625 -20.96875 21.769531 -20.71875 22.21875 -20.21875 C 22.675781 -19.726562 22.90625 -18.90625 22.90625 -17.75 C 22.90625 -16.34375 22.53125 -14.722656 21.78125 -12.890625 C 21.03125 -11.054688 19.941406 -9.128906 18.515625 -7.109375 C 18.753906 -5.859375 19.1875 -4.84375 19.8125 -4.0625 C 20.445312 -3.289062 21.144531 -2.90625 21.90625 -2.90625 C 22.625 -2.90625 23.359375 -3.242188 24.109375 -3.921875 C 24.859375 -4.597656 25.546875 -5.457031 26.171875 -6.5 C 26.796875 -7.550781 27.304688 -8.71875 27.703125 -10 C 28.109375 -11.28125 28.3125 -12.53125 28.3125 -13.75 C 28.3125 -14.34375 28.265625 -14.859375 28.171875 -15.296875 C 28.078125 -15.734375 27.972656 -16.140625 27.859375 -16.515625 C 27.742188 -16.890625 27.640625 -17.25 27.546875 -17.59375 C 27.453125 -17.945312 27.40625 -18.332031 27.40625 -18.75 C 27.40625 -20.226562 28.082031 -20.96875 29.4375 -20.96875 C 30.238281 -20.96875 30.8125 -20.671875 31.15625 -20.078125 C 31.507812 -19.484375 31.6875 -18.484375 31.6875 -17.078125 C 31.6875 -15.015625 31.347656 -12.941406 30.671875 -10.859375 C 30.003906 -8.773438 29.128906 -6.894531 28.046875 -5.21875 C 26.972656 -3.550781 25.765625 -2.195312 24.421875 -1.15625 C 23.078125 -0.125 21.734375 0.390625 20.390625 0.390625 C 19.296875 0.390625 18.359375 0.0390625 17.578125 -0.65625 C 16.804688 -1.351562 16.210938 -2.390625 15.796875 -3.765625 Z M 17.984375 -9.59375 C 18.648438 -10.707031 19.195312 -11.816406 19.625 -12.921875 C 20.050781 -14.035156 20.265625 -15.164062 20.265625 -16.3125 C 20.265625 -17.289062 20.070312 -17.78125 19.6875 -17.78125 C 19.425781 -17.78125 19.175781 -17.613281 18.9375 -17.28125 C 18.707031 -16.945312 18.507812 -16.492188 18.34375 -15.921875 C 18.175781 -15.347656 18.039062 -14.679688 17.9375 -13.921875 C 17.832031 -13.160156 17.78125 -12.351562 17.78125 -11.5 C 17.78125 -11.132812 17.789062 -10.796875 17.8125 -10.484375 C 17.84375 -10.171875 17.898438 -9.875 17.984375 -9.59375 Z M 17.984375 -9.59375 "/></g></g></g><g fill="#272727" fill-opacity="1"><g transform="translate(436.573497, 463.861262)"><g><path d="M 12.890625 -18.953125 C 11.910156 -18.953125 10.894531 -18.5 9.84375 -17.59375 C 8.789062 -16.6875 7.835938 -15.550781 6.984375 -14.1875 C 6.128906 -12.832031 5.429688 -11.367188 4.890625 -9.796875 C 4.347656 -8.234375 4.078125 -6.78125 4.078125 -5.4375 C 4.078125 -4.5 4.269531 -3.753906 4.65625 -3.203125 C 5.039062 -2.648438 5.570312 -2.375 6.25 -2.375 C 6.84375 -2.375 7.460938 -2.613281 8.109375 -3.09375 C 8.753906 -3.570312 9.378906 -4.203125 9.984375 -4.984375 C 10.597656 -5.773438 11.175781 -6.675781 11.71875 -7.6875 C 12.269531 -8.695312 12.75 -9.738281 13.15625 -10.8125 C 13.570312 -11.882812 13.894531 -12.9375 14.125 -13.96875 C 14.363281 -15.007812 14.484375 -15.945312 14.484375 -16.78125 C 14.484375 -17.445312 14.335938 -17.972656 14.046875 -18.359375 C 13.765625 -18.753906 13.378906 -18.953125 12.890625 -18.953125 Z M 16.890625 -20.578125 L 20.109375 -20.578125 L 17.90625 -14.640625 C 17.539062 -13.648438 17.179688 -12.597656 16.828125 -11.484375 C 16.484375 -10.378906 16.175781 -9.304688 15.90625 -8.265625 C 15.632812 -7.234375 15.421875 -6.289062 15.265625 -5.4375 C 15.109375 -4.582031 15.03125 -3.945312 15.03125 -3.53125 C 15.03125 -2.78125 15.273438 -2.40625 15.765625 -2.40625 C 16.128906 -2.40625 16.648438 -2.78125 17.328125 -3.53125 C 18.015625 -4.28125 18.785156 -5.253906 19.640625 -6.453125 L 20.65625 -5.625 C 19.570312 -3.707031 18.398438 -2.222656 17.140625 -1.171875 C 15.890625 -0.128906 14.679688 0.390625 13.515625 0.390625 C 12.921875 0.390625 12.460938 0.164062 12.140625 -0.28125 C 11.816406 -0.738281 11.65625 -1.488281 11.65625 -2.53125 C 11.65625 -2.757812 11.660156 -3.03125 11.671875 -3.34375 C 11.679688 -3.65625 11.710938 -4.066406 11.765625 -4.578125 L 11.609375 -4.625 C 11.222656 -3.894531 10.765625 -3.222656 10.234375 -2.609375 C 9.703125 -2.003906 9.125 -1.472656 8.5 -1.015625 C 7.882812 -0.566406 7.238281 -0.222656 6.5625 0.015625 C 5.882812 0.265625 5.222656 0.390625 4.578125 0.390625 C 3.253906 0.390625 2.222656 -0.101562 1.484375 -1.09375 C 0.753906 -2.09375 0.390625 -3.472656 0.390625 -5.234375 C 0.390625 -7.023438 0.765625 -8.851562 1.515625 -10.71875 C 2.265625 -12.582031 3.234375 -14.269531 4.421875 -15.78125 C 5.617188 -17.300781 6.941406 -18.546875 8.390625 -19.515625 C 9.835938 -20.484375 11.257812 -20.96875 12.65625 -20.96875 C 13.507812 -20.96875 14.207031 -20.765625 14.75 -20.359375 C 15.289062 -19.960938 15.734375 -19.3125 16.078125 -18.40625 Z M 16.890625 -20.578125 "/></g></g></g><g fill="#272727" fill-opacity="1"><g transform="translate(458.705728, 463.861262)"><g><path d="M 0.8125 -15.1875 C 1.101562 -15.832031 1.535156 -16.492188 2.109375 -17.171875 C 2.691406 -17.859375 3.328125 -18.476562 4.015625 -19.03125 C 4.703125 -19.59375 5.394531 -20.054688 6.09375 -20.421875 C 6.789062 -20.785156 7.398438 -20.96875 7.921875 -20.96875 C 8.546875 -20.96875 9 -20.734375 9.28125 -20.265625 C 9.5625 -19.796875 9.703125 -19.046875 9.703125 -18.015625 C 9.703125 -17.597656 9.679688 -17.195312 9.640625 -16.8125 C 9.609375 -16.425781 9.539062 -15.972656 9.4375 -15.453125 L 9.546875 -15.34375 C 9.859375 -16.09375 10.296875 -16.828125 10.859375 -17.546875 C 11.429688 -18.273438 12.046875 -18.914062 12.703125 -19.46875 C 13.367188 -20.03125 14.046875 -20.484375 14.734375 -20.828125 C 15.421875 -21.179688 16.0625 -21.359375 16.65625 -21.359375 C 17.40625 -21.359375 18.03125 -21.117188 18.53125 -20.640625 C 19.039062 -20.160156 19.296875 -19.570312 19.296875 -18.875 C 19.296875 -18.195312 19.082031 -17.640625 18.65625 -17.203125 C 18.226562 -16.765625 17.675781 -16.546875 17 -16.546875 C 16.59375 -16.546875 16.265625 -16.617188 16.015625 -16.765625 C 15.765625 -16.921875 15.550781 -17.082031 15.375 -17.25 C 15.195312 -17.425781 15.03125 -17.59375 14.875 -17.75 C 14.71875 -17.90625 14.519531 -17.984375 14.28125 -17.984375 C 13.789062 -17.984375 13.222656 -17.648438 12.578125 -16.984375 C 11.929688 -16.328125 11.257812 -15.425781 10.5625 -14.28125 C 9.863281 -13.144531 9.171875 -11.8125 8.484375 -10.28125 C 7.796875 -8.757812 7.164062 -7.117188 6.59375 -5.359375 L 4.859375 0 L 1.25 0 L 3.765625 -8.03125 C 4.253906 -9.582031 4.660156 -10.867188 4.984375 -11.890625 C 5.304688 -12.921875 5.554688 -13.78125 5.734375 -14.46875 C 5.921875 -15.15625 6.046875 -15.691406 6.109375 -16.078125 C 6.179688 -16.460938 6.21875 -16.796875 6.21875 -17.078125 C 6.21875 -17.648438 6.019531 -17.9375 5.625 -17.9375 C 5.363281 -17.9375 5.046875 -17.832031 4.671875 -17.625 C 4.296875 -17.414062 3.925781 -17.15625 3.5625 -16.84375 C 3.207031 -16.539062 2.867188 -16.191406 2.546875 -15.796875 C 2.222656 -15.410156 1.984375 -15.035156 1.828125 -14.671875 Z M 0.8125 -15.1875 "/></g></g></g><g fill="#272727" fill-opacity="1"><g transform="translate(476.683315, 463.861262)"><g><path d="M 14.40625 -5.171875 C 12.15625 -1.460938 9.382812 0.390625 6.09375 0.390625 C 4.3125 0.390625 2.941406 -0.15625 1.984375 -1.25 C 1.023438 -2.351562 0.546875 -3.914062 0.546875 -5.9375 C 0.546875 -7.726562 0.910156 -9.515625 1.640625 -11.296875 C 2.378906 -13.085938 3.34375 -14.695312 4.53125 -16.125 C 5.726562 -17.5625 7.0625 -18.726562 8.53125 -19.625 C 10.007812 -20.519531 11.488281 -20.96875 12.96875 -20.96875 C 14.207031 -20.96875 15.222656 -20.648438 16.015625 -20.015625 C 16.804688 -19.378906 17.203125 -18.570312 17.203125 -17.59375 C 17.203125 -16.6875 16.863281 -15.753906 16.1875 -14.796875 C 15.519531 -13.835938 14.609375 -12.929688 13.453125 -12.078125 C 12.296875 -11.222656 10.945312 -10.445312 9.40625 -9.75 C 7.875 -9.050781 6.238281 -8.503906 4.5 -8.109375 C 4.445312 -7.753906 4.40625 -7.398438 4.375 -7.046875 C 4.351562 -6.691406 4.34375 -6.335938 4.34375 -5.984375 C 4.34375 -3.160156 5.34375 -1.75 7.34375 -1.75 C 8.300781 -1.75 9.289062 -2.125 10.3125 -2.875 C 11.332031 -3.625 12.28125 -4.660156 13.15625 -5.984375 Z M 12.1875 -19.140625 C 11.519531 -19.140625 10.820312 -18.878906 10.09375 -18.359375 C 9.375 -17.847656 8.679688 -17.15625 8.015625 -16.28125 C 7.359375 -15.414062 6.753906 -14.425781 6.203125 -13.3125 C 5.660156 -12.207031 5.222656 -11.054688 4.890625 -9.859375 C 6.128906 -10.191406 7.28125 -10.628906 8.34375 -11.171875 C 9.40625 -11.722656 10.316406 -12.34375 11.078125 -13.03125 C 11.847656 -13.71875 12.453125 -14.441406 12.890625 -15.203125 C 13.328125 -15.960938 13.546875 -16.734375 13.546875 -17.515625 C 13.546875 -18.597656 13.09375 -19.140625 12.1875 -19.140625 Z M 12.1875 -19.140625 "/></g></g></g><g fill="#272727" fill-opacity="1"><g transform="translate(494.389097, 463.861262)"><g/></g></g><g fill="#272727" fill-opacity="1"><g transform="translate(505.066922, 463.861262)"><g><path d="M -0.578125 -1.546875 C 0.273438 -1.546875 0.976562 -1.609375 1.53125 -1.734375 C 2.09375 -1.867188 2.5625 -2.109375 2.9375 -2.453125 C 3.3125 -2.804688 3.625 -3.273438 3.875 -3.859375 C 4.132812 -4.441406 4.382812 -5.203125 4.625 -6.140625 L 9.125 -23.265625 C 9.300781 -23.929688 9.4375 -24.507812 9.53125 -25 C 9.625 -25.5 9.671875 -25.925781 9.671875 -26.28125 C 9.671875 -27.132812 9.367188 -27.691406 8.765625 -27.953125 C 8.171875 -28.210938 7.175781 -28.34375 5.78125 -28.34375 L 6.21875 -29.890625 L 27.40625 -29.890625 L 27.40625 -22.046875 L 25.9375 -22.046875 C 25.601562 -23.296875 25.226562 -24.3125 24.8125 -25.09375 C 24.394531 -25.882812 23.921875 -26.503906 23.390625 -26.953125 C 22.859375 -27.410156 22.265625 -27.726562 21.609375 -27.90625 C 20.953125 -28.09375 20.222656 -28.1875 19.421875 -28.1875 L 14.359375 -28.1875 L 11.34375 -16.65625 L 13.78125 -16.65625 C 14.476562 -16.65625 15.070312 -16.71875 15.5625 -16.84375 C 16.0625 -16.976562 16.507812 -17.207031 16.90625 -17.53125 C 17.3125 -17.851562 17.6875 -18.296875 18.03125 -18.859375 C 18.382812 -19.429688 18.769531 -20.171875 19.1875 -21.078125 L 20.625 -21.078125 L 18.28125 -9.59375 L 16.734375 -9.59375 C 16.804688 -10.363281 16.84375 -11.035156 16.84375 -11.609375 C 16.84375 -12.773438 16.625 -13.625 16.1875 -14.15625 C 15.75 -14.6875 14.9375 -14.953125 13.75 -14.953125 L 10.828125 -14.953125 L 8.625 -6.59375 C 8.382812 -5.738281 8.265625 -5.015625 8.265625 -4.421875 C 8.265625 -3.492188 8.675781 -2.800781 9.5 -2.34375 C 10.332031 -1.894531 11.757812 -1.671875 13.78125 -1.671875 C 15.257812 -1.671875 16.546875 -1.785156 17.640625 -2.015625 C 18.742188 -2.253906 19.703125 -2.625 20.515625 -3.125 C 21.335938 -3.632812 22.050781 -4.300781 22.65625 -5.125 C 23.257812 -5.957031 23.835938 -6.976562 24.390625 -8.1875 L 26.203125 -8.1875 L 23.1875 0 L -1.015625 0 Z M -0.578125 -1.546875 "/></g></g></g><g fill="#272727" fill-opacity="1"><g transform="translate(533.8, 463.861262)"><g><path d="M 16.5 -18.953125 C 15.875 -18.953125 15.164062 -18.632812 14.375 -18 C 13.59375 -17.363281 12.789062 -16.519531 11.96875 -15.46875 C 11.15625 -14.425781 10.375 -13.226562 9.625 -11.875 C 8.875 -10.53125 8.242188 -9.160156 7.734375 -7.765625 L 4.859375 0 L 1.4375 0 L 4.3125 -8.890625 C 4.78125 -10.316406 5.164062 -11.535156 5.46875 -12.546875 C 5.78125 -13.554688 6.03125 -14.398438 6.21875 -15.078125 C 6.414062 -15.765625 6.550781 -16.320312 6.625 -16.75 C 6.707031 -17.175781 6.75 -17.519531 6.75 -17.78125 C 6.75 -18.476562 6.53125 -18.828125 6.09375 -18.828125 C 5.8125 -18.828125 5.472656 -18.644531 5.078125 -18.28125 C 4.691406 -17.925781 4.296875 -17.457031 3.890625 -16.875 C 3.492188 -16.289062 3.113281 -15.625 2.75 -14.875 C 2.394531 -14.125 2.085938 -13.359375 1.828125 -12.578125 L 0.65625 -13.15625 C 1.5625 -15.820312 2.578125 -17.789062 3.703125 -19.0625 C 4.828125 -20.332031 6.117188 -20.96875 7.578125 -20.96875 C 8.398438 -20.96875 8.984375 -20.734375 9.328125 -20.265625 C 9.679688 -19.796875 9.859375 -19.007812 9.859375 -17.90625 C 9.859375 -16.582031 9.640625 -15.398438 9.203125 -14.359375 L 9.3125 -14.25 C 10.632812 -16.582031 11.972656 -18.285156 13.328125 -19.359375 C 14.691406 -20.429688 16.175781 -20.96875 17.78125 -20.96875 C 18.914062 -20.96875 19.78125 -20.695312 20.375 -20.15625 C 20.976562 -19.613281 21.28125 -18.835938 21.28125 -17.828125 C 21.28125 -17.484375 21.242188 -17.101562 21.171875 -16.6875 C 21.109375 -16.28125 21 -15.785156 20.84375 -15.203125 C 20.695312 -14.617188 20.484375 -13.925781 20.203125 -13.125 C 19.929688 -12.320312 19.601562 -11.335938 19.21875 -10.171875 C 18.625 -8.410156 18.128906 -6.929688 17.734375 -5.734375 C 17.347656 -4.546875 17.15625 -3.707031 17.15625 -3.21875 C 17.15625 -2.832031 17.285156 -2.640625 17.546875 -2.640625 C 17.910156 -2.640625 18.441406 -2.9375 19.140625 -3.53125 C 19.835938 -4.125 20.785156 -5.082031 21.984375 -6.40625 L 22.984375 -5.859375 C 22.566406 -5.085938 22.03125 -4.332031 21.375 -3.59375 C 20.71875 -2.851562 20.03125 -2.1875 19.3125 -1.59375 C 18.601562 -1 17.898438 -0.519531 17.203125 -0.15625 C 16.503906 0.207031 15.894531 0.390625 15.375 0.390625 C 14.726562 0.390625 14.21875 0.109375 13.84375 -0.453125 C 13.46875 -1.023438 13.28125 -1.78125 13.28125 -2.71875 C 13.28125 -3.082031 13.3125 -3.453125 13.375 -3.828125 C 13.4375 -4.203125 13.570312 -4.738281 13.78125 -5.4375 C 13.988281 -6.132812 14.289062 -7.070312 14.6875 -8.25 C 15.09375 -9.425781 15.644531 -10.988281 16.34375 -12.9375 C 16.582031 -13.601562 16.773438 -14.171875 16.921875 -14.640625 C 17.078125 -15.109375 17.203125 -15.515625 17.296875 -15.859375 C 17.390625 -16.210938 17.453125 -16.515625 17.484375 -16.765625 C 17.523438 -17.023438 17.546875 -17.273438 17.546875 -17.515625 C 17.546875 -18.472656 17.195312 -18.953125 16.5 -18.953125 Z M 16.5 -18.953125 "/></g></g></g><g fill="#272727" fill-opacity="1"><g transform="translate(558.145462, 463.861262)"><g><path d="M 16.890625 2.828125 C 16.890625 3.941406 16.648438 4.945312 16.171875 5.84375 C 15.691406 6.738281 15.003906 7.5 14.109375 8.125 C 13.222656 8.757812 12.144531 9.242188 10.875 9.578125 C 9.601562 9.921875 8.175781 10.09375 6.59375 10.09375 C 5.175781 10.09375 3.882812 9.960938 2.71875 9.703125 C 1.550781 9.441406 0.550781 9.066406 -0.28125 8.578125 C -1.125 8.085938 -1.769531 7.507812 -2.21875 6.84375 C -2.675781 6.1875 -2.90625 5.445312 -2.90625 4.625 C -2.90625 3.5625 -2.5625 2.679688 -1.875 1.984375 C -1.195312 1.285156 -0.328125 0.9375 0.734375 0.9375 C 1.046875 0.9375 1.34375 0.972656 1.625 1.046875 C 1.914062 1.128906 2.28125 1.269531 2.71875 1.46875 C 1.269531 2.070312 0.546875 3.203125 0.546875 4.859375 C 0.546875 5.941406 1.09375 6.789062 2.1875 7.40625 C 3.289062 8.03125 4.800781 8.34375 6.71875 8.34375 C 7.75 8.34375 8.703125 8.226562 9.578125 8 C 10.460938 7.769531 11.222656 7.472656 11.859375 7.109375 C 12.492188 6.742188 12.984375 6.332031 13.328125 5.875 C 13.679688 5.425781 13.859375 4.984375 13.859375 4.546875 C 13.859375 3.816406 13.425781 3.160156 12.5625 2.578125 C 11.695312 1.992188 10.472656 1.5625 8.890625 1.28125 C 6.066406 0.789062 3.992188 0.222656 2.671875 -0.421875 C 1.359375 -1.066406 0.703125 -1.972656 0.703125 -3.140625 C 0.703125 -3.890625 1.03125 -4.523438 1.6875 -5.046875 C 2.34375 -5.566406 3.523438 -6.082031 5.234375 -6.59375 L 5.3125 -6.75 C 3.351562 -8.15625 2.375 -9.957031 2.375 -12.15625 C 2.375 -13.34375 2.617188 -14.472656 3.109375 -15.546875 C 3.597656 -16.617188 4.265625 -17.5625 5.109375 -18.375 C 5.953125 -19.195312 6.9375 -19.835938 8.0625 -20.296875 C 9.1875 -20.765625 10.367188 -21 11.609375 -21 C 13.523438 -21 15.128906 -20.300781 16.421875 -18.90625 C 17.640625 -20.28125 18.816406 -20.96875 19.953125 -20.96875 C 20.785156 -20.96875 21.507812 -20.710938 22.125 -20.203125 C 22.75 -19.703125 23.0625 -19.113281 23.0625 -18.4375 C 23.0625 -17.925781 22.882812 -17.492188 22.53125 -17.140625 C 22.1875 -16.796875 21.753906 -16.625 21.234375 -16.625 C 20.847656 -16.625 20.546875 -16.707031 20.328125 -16.875 C 20.109375 -17.039062 19.921875 -17.226562 19.765625 -17.4375 C 19.609375 -17.644531 19.429688 -17.832031 19.234375 -18 C 19.046875 -18.164062 18.78125 -18.25 18.4375 -18.25 C 18.257812 -18.25 18.09375 -18.21875 17.9375 -18.15625 C 17.78125 -18.09375 17.492188 -17.914062 17.078125 -17.625 C 17.210938 -17.257812 17.304688 -16.914062 17.359375 -16.59375 C 17.410156 -16.269531 17.4375 -15.863281 17.4375 -15.375 C 17.4375 -12.53125 16.644531 -10.257812 15.0625 -8.5625 C 13.488281 -6.863281 11.316406 -5.910156 8.546875 -5.703125 C 7.296875 -5.597656 6.40625 -5.441406 5.875 -5.234375 C 5.351562 -5.035156 5.09375 -4.726562 5.09375 -4.3125 C 5.09375 -3.769531 5.378906 -3.359375 5.953125 -3.078125 C 6.535156 -2.804688 7.265625 -2.582031 8.140625 -2.40625 C 9.023438 -2.226562 9.972656 -2.046875 10.984375 -1.859375 C 11.992188 -1.679688 12.9375 -1.414062 13.8125 -1.0625 C 14.695312 -0.71875 15.429688 -0.242188 16.015625 0.359375 C 16.597656 0.972656 16.890625 1.796875 16.890625 2.828125 Z M 8.734375 -7.421875 C 9.359375 -7.421875 9.96875 -7.664062 10.5625 -8.15625 C 11.15625 -8.644531 11.691406 -9.296875 12.171875 -10.109375 C 12.648438 -10.929688 13.03125 -11.859375 13.3125 -12.890625 C 13.601562 -13.921875 13.75 -14.984375 13.75 -16.078125 C 13.75 -17.109375 13.515625 -17.925781 13.046875 -18.53125 C 12.578125 -19.144531 11.96875 -19.453125 11.21875 -19.453125 C 10.625 -19.453125 10.015625 -19.1875 9.390625 -18.65625 C 8.773438 -18.125 8.210938 -17.441406 7.703125 -16.609375 C 7.203125 -15.785156 6.796875 -14.847656 6.484375 -13.796875 C 6.171875 -12.753906 6.015625 -11.726562 6.015625 -10.71875 C 6.015625 -9.726562 6.257812 -8.929688 6.75 -8.328125 C 7.25 -7.722656 7.910156 -7.421875 8.734375 -7.421875 Z M 8.734375 -7.421875 "/></g></g></g><g fill="#272727" fill-opacity="1"><g transform="translate(579.501138, 463.861262)"><g><path d="M 5.09375 -12.8125 C 5.445312 -13.820312 5.703125 -14.632812 5.859375 -15.25 C 6.015625 -15.875 6.09375 -16.367188 6.09375 -16.734375 C 6.09375 -17.097656 6.035156 -17.335938 5.921875 -17.453125 C 5.804688 -17.566406 5.679688 -17.625 5.546875 -17.625 C 5.265625 -17.625 4.953125 -17.488281 4.609375 -17.21875 C 4.273438 -16.945312 3.941406 -16.628906 3.609375 -16.265625 C 3.273438 -15.898438 2.976562 -15.535156 2.71875 -15.171875 C 2.457031 -14.816406 2.273438 -14.535156 2.171875 -14.328125 L 1.046875 -15.03125 C 1.359375 -15.59375 1.789062 -16.222656 2.34375 -16.921875 C 2.90625 -17.628906 3.535156 -18.28125 4.234375 -18.875 C 4.929688 -19.46875 5.65625 -19.960938 6.40625 -20.359375 C 7.15625 -20.765625 7.867188 -20.96875 8.546875 -20.96875 C 9.191406 -20.96875 9.675781 -20.78125 10 -20.40625 C 10.320312 -20.03125 10.484375 -19.347656 10.484375 -18.359375 C 10.484375 -17.609375 10.253906 -16.597656 9.796875 -15.328125 C 9.347656 -14.066406 8.757812 -12.4375 8.03125 -10.4375 L 6.59375 -6.515625 C 6.539062 -6.390625 6.46875 -6.191406 6.375 -5.921875 C 6.289062 -5.648438 6.203125 -5.363281 6.109375 -5.0625 C 6.023438 -4.769531 5.945312 -4.476562 5.875 -4.1875 C 5.8125 -3.90625 5.78125 -3.675781 5.78125 -3.5 C 5.78125 -3.257812 5.84375 -3.046875 5.96875 -2.859375 C 6.101562 -2.679688 6.3125 -2.59375 6.59375 -2.59375 C 6.988281 -2.59375 7.390625 -2.753906 7.796875 -3.078125 C 8.210938 -3.410156 8.613281 -3.796875 9 -4.234375 C 9.394531 -4.671875 9.742188 -5.113281 10.046875 -5.5625 C 10.359375 -6.019531 10.59375 -6.378906 10.75 -6.640625 L 11.921875 -5.984375 C 11.609375 -5.359375 11.1875 -4.671875 10.65625 -3.921875 C 10.125 -3.171875 9.519531 -2.476562 8.84375 -1.84375 C 8.175781 -1.207031 7.441406 -0.675781 6.640625 -0.25 C 5.835938 0.175781 5.007812 0.390625 4.15625 0.390625 C 3.40625 0.390625 2.84375 0.195312 2.46875 -0.1875 C 2.09375 -0.582031 1.90625 -1.234375 1.90625 -2.140625 C 1.90625 -2.890625 2.023438 -3.695312 2.265625 -4.5625 C 2.515625 -5.425781 2.875 -6.519531 3.34375 -7.84375 Z M 10.796875 -27.328125 C 10.148438 -27.328125 9.585938 -27.546875 9.109375 -27.984375 C 8.628906 -28.429688 8.390625 -29.003906 8.390625 -29.703125 C 8.390625 -30.398438 8.617188 -30.992188 9.078125 -31.484375 C 9.546875 -31.984375 10.117188 -32.234375 10.796875 -32.234375 C 11.515625 -32.234375 12.109375 -31.984375 12.578125 -31.484375 C 13.046875 -30.992188 13.28125 -30.414062 13.28125 -29.75 C 13.28125 -29.070312 13.03125 -28.5 12.53125 -28.03125 C 12.039062 -27.5625 11.460938 -27.328125 10.796875 -27.328125 Z M 10.796875 -27.328125 "/></g></g></g><g fill="#272727" fill-opacity="1"><g transform="translate(592.858137, 463.861262)"><g><path d="M 16.5 -18.953125 C 15.875 -18.953125 15.164062 -18.632812 14.375 -18 C 13.59375 -17.363281 12.789062 -16.519531 11.96875 -15.46875 C 11.15625 -14.425781 10.375 -13.226562 9.625 -11.875 C 8.875 -10.53125 8.242188 -9.160156 7.734375 -7.765625 L 4.859375 0 L 1.4375 0 L 4.3125 -8.890625 C 4.78125 -10.316406 5.164062 -11.535156 5.46875 -12.546875 C 5.78125 -13.554688 6.03125 -14.398438 6.21875 -15.078125 C 6.414062 -15.765625 6.550781 -16.320312 6.625 -16.75 C 6.707031 -17.175781 6.75 -17.519531 6.75 -17.78125 C 6.75 -18.476562 6.53125 -18.828125 6.09375 -18.828125 C 5.8125 -18.828125 5.472656 -18.644531 5.078125 -18.28125 C 4.691406 -17.925781 4.296875 -17.457031 3.890625 -16.875 C 3.492188 -16.289062 3.113281 -15.625 2.75 -14.875 C 2.394531 -14.125 2.085938 -13.359375 1.828125 -12.578125 L 0.65625 -13.15625 C 1.5625 -15.820312 2.578125 -17.789062 3.703125 -19.0625 C 4.828125 -20.332031 6.117188 -20.96875 7.578125 -20.96875 C 8.398438 -20.96875 8.984375 -20.734375 9.328125 -20.265625 C 9.679688 -19.796875 9.859375 -19.007812 9.859375 -17.90625 C 9.859375 -16.582031 9.640625 -15.398438 9.203125 -14.359375 L 9.3125 -14.25 C 10.632812 -16.582031 11.972656 -18.285156 13.328125 -19.359375 C 14.691406 -20.429688 16.175781 -20.96875 17.78125 -20.96875 C 18.914062 -20.96875 19.78125 -20.695312 20.375 -20.15625 C 20.976562 -19.613281 21.28125 -18.835938 21.28125 -17.828125 C 21.28125 -17.484375 21.242188 -17.101562 21.171875 -16.6875 C 21.109375 -16.28125 21 -15.785156 20.84375 -15.203125 C 20.695312 -14.617188 20.484375 -13.925781 20.203125 -13.125 C 19.929688 -12.320312 19.601562 -11.335938 19.21875 -10.171875 C 18.625 -8.410156 18.128906 -6.929688 17.734375 -5.734375 C 17.347656 -4.546875 17.15625 -3.707031 17.15625 -3.21875 C 17.15625 -2.832031 17.285156 -2.640625 17.546875 -2.640625 C 17.910156 -2.640625 18.441406 -2.9375 19.140625 -3.53125 C 19.835938 -4.125 20.785156 -5.082031 21.984375 -6.40625 L 22.984375 -5.859375 C 22.566406 -5.085938 22.03125 -4.332031 21.375 -3.59375 C 20.71875 -2.851562 20.03125 -2.1875 19.3125 -1.59375 C 18.601562 -1 17.898438 -0.519531 17.203125 -0.15625 C 16.503906 0.207031 15.894531 0.390625 15.375 0.390625 C 14.726562 0.390625 14.21875 0.109375 13.84375 -0.453125 C 13.46875 -1.023438 13.28125 -1.78125 13.28125 -2.71875 C 13.28125 -3.082031 13.3125 -3.453125 13.375 -3.828125 C 13.4375 -4.203125 13.570312 -4.738281 13.78125 -5.4375 C 13.988281 -6.132812 14.289062 -7.070312 14.6875 -8.25 C 15.09375 -9.425781 15.644531 -10.988281 16.34375 -12.9375 C 16.582031 -13.601562 16.773438 -14.171875 16.921875 -14.640625 C 17.078125 -15.109375 17.203125 -15.515625 17.296875 -15.859375 C 17.390625 -16.210938 17.453125 -16.515625 17.484375 -16.765625 C 17.523438 -17.023438 17.546875 -17.273438 17.546875 -17.515625 C 17.546875 -18.472656 17.195312 -18.953125 16.5 -18.953125 Z M 16.5 -18.953125 "/></g></g></g><g fill="#272727" fill-opacity="1"><g transform="translate(617.203586, 463.861262)"><g><path d="M 14.40625 -5.171875 C 12.15625 -1.460938 9.382812 0.390625 6.09375 0.390625 C 4.3125 0.390625 2.941406 -0.15625 1.984375 -1.25 C 1.023438 -2.351562 0.546875 -3.914062 0.546875 -5.9375 C 0.546875 -7.726562 0.910156 -9.515625 1.640625 -11.296875 C 2.378906 -13.085938 3.34375 -14.695312 4.53125 -16.125 C 5.726562 -17.5625 7.0625 -18.726562 8.53125 -19.625 C 10.007812 -20.519531 11.488281 -20.96875 12.96875 -20.96875 C 14.207031 -20.96875 15.222656 -20.648438 16.015625 -20.015625 C 16.804688 -19.378906 17.203125 -18.570312 17.203125 -17.59375 C 17.203125 -16.6875 16.863281 -15.753906 16.1875 -14.796875 C 15.519531 -13.835938 14.609375 -12.929688 13.453125 -12.078125 C 12.296875 -11.222656 10.945312 -10.445312 9.40625 -9.75 C 7.875 -9.050781 6.238281 -8.503906 4.5 -8.109375 C 4.445312 -7.753906 4.40625 -7.398438 4.375 -7.046875 C 4.351562 -6.691406 4.34375 -6.335938 4.34375 -5.984375 C 4.34375 -3.160156 5.34375 -1.75 7.34375 -1.75 C 8.300781 -1.75 9.289062 -2.125 10.3125 -2.875 C 11.332031 -3.625 12.28125 -4.660156 13.15625 -5.984375 Z M 12.1875 -19.140625 C 11.519531 -19.140625 10.820312 -18.878906 10.09375 -18.359375 C 9.375 -17.847656 8.679688 -17.15625 8.015625 -16.28125 C 7.359375 -15.414062 6.753906 -14.425781 6.203125 -13.3125 C 5.660156 -12.207031 5.222656 -11.054688 4.890625 -9.859375 C 6.128906 -10.191406 7.28125 -10.628906 8.34375 -11.171875 C 9.40625 -11.722656 10.316406 -12.34375 11.078125 -13.03125 C 11.847656 -13.71875 12.453125 -14.441406 12.890625 -15.203125 C 13.328125 -15.960938 13.546875 -16.734375 13.546875 -17.515625 C 13.546875 -18.597656 13.09375 -19.140625 12.1875 -19.140625 Z M 12.1875 -19.140625 "/></g></g></g><g fill="#272727" fill-opacity="1"><g transform="translate(634.909382, 463.861262)"><g><path d="M 14.40625 -5.171875 C 12.15625 -1.460938 9.382812 0.390625 6.09375 0.390625 C 4.3125 0.390625 2.941406 -0.15625 1.984375 -1.25 C 1.023438 -2.351562 0.546875 -3.914062 0.546875 -5.9375 C 0.546875 -7.726562 0.910156 -9.515625 1.640625 -11.296875 C 2.378906 -13.085938 3.34375 -14.695312 4.53125 -16.125 C 5.726562 -17.5625 7.0625 -18.726562 8.53125 -19.625 C 10.007812 -20.519531 11.488281 -20.96875 12.96875 -20.96875 C 14.207031 -20.96875 15.222656 -20.648438 16.015625 -20.015625 C 16.804688 -19.378906 17.203125 -18.570312 17.203125 -17.59375 C 17.203125 -16.6875 16.863281 -15.753906 16.1875 -14.796875 C 15.519531 -13.835938 14.609375 -12.929688 13.453125 -12.078125 C 12.296875 -11.222656 10.945312 -10.445312 9.40625 -9.75 C 7.875 -9.050781 6.238281 -8.503906 4.5 -8.109375 C 4.445312 -7.753906 4.40625 -7.398438 4.375 -7.046875 C 4.351562 -6.691406 4.34375 -6.335938 4.34375 -5.984375 C 4.34375 -3.160156 5.34375 -1.75 7.34375 -1.75 C 8.300781 -1.75 9.289062 -2.125 10.3125 -2.875 C 11.332031 -3.625 12.28125 -4.660156 13.15625 -5.984375 Z M 12.1875 -19.140625 C 11.519531 -19.140625 10.820312 -18.878906 10.09375 -18.359375 C 9.375 -17.847656 8.679688 -17.15625 8.015625 -16.28125 C 7.359375 -15.414062 6.753906 -14.425781 6.203125 -13.3125 C 5.660156 -12.207031 5.222656 -11.054688 4.890625 -9.859375 C 6.128906 -10.191406 7.28125 -10.628906 8.34375 -11.171875 C 9.40625 -11.722656 10.316406 -12.34375 11.078125 -13.03125 C 11.847656 -13.71875 12.453125 -14.441406 12.890625 -15.203125 C 13.328125 -15.960938 13.546875 -16.734375 13.546875 -17.515625 C 13.546875 -18.597656 13.09375 -19.140625 12.1875 -19.140625 Z M 12.1875 -19.140625 "/></g></g></g><g fill="#272727" fill-opacity="1"><g transform="translate(652.615177, 463.861262)"><g><path d="M 0.8125 -15.1875 C 1.101562 -15.832031 1.535156 -16.492188 2.109375 -17.171875 C 2.691406 -17.859375 3.328125 -18.476562 4.015625 -19.03125 C 4.703125 -19.59375 5.394531 -20.054688 6.09375 -20.421875 C 6.789062 -20.785156 7.398438 -20.96875 7.921875 -20.96875 C 8.546875 -20.96875 9 -20.734375 9.28125 -20.265625 C 9.5625 -19.796875 9.703125 -19.046875 9.703125 -18.015625 C 9.703125 -17.597656 9.679688 -17.195312 9.640625 -16.8125 C 9.609375 -16.425781 9.539062 -15.972656 9.4375 -15.453125 L 9.546875 -15.34375 C 9.859375 -16.09375 10.296875 -16.828125 10.859375 -17.546875 C 11.429688 -18.273438 12.046875 -18.914062 12.703125 -19.46875 C 13.367188 -20.03125 14.046875 -20.484375 14.734375 -20.828125 C 15.421875 -21.179688 16.0625 -21.359375 16.65625 -21.359375 C 17.40625 -21.359375 18.03125 -21.117188 18.53125 -20.640625 C 19.039062 -20.160156 19.296875 -19.570312 19.296875 -18.875 C 19.296875 -18.195312 19.082031 -17.640625 18.65625 -17.203125 C 18.226562 -16.765625 17.675781 -16.546875 17 -16.546875 C 16.59375 -16.546875 16.265625 -16.617188 16.015625 -16.765625 C 15.765625 -16.921875 15.550781 -17.082031 15.375 -17.25 C 15.195312 -17.425781 15.03125 -17.59375 14.875 -17.75 C 14.71875 -17.90625 14.519531 -17.984375 14.28125 -17.984375 C 13.789062 -17.984375 13.222656 -17.648438 12.578125 -16.984375 C 11.929688 -16.328125 11.257812 -15.425781 10.5625 -14.28125 C 9.863281 -13.144531 9.171875 -11.8125 8.484375 -10.28125 C 7.796875 -8.757812 7.164062 -7.117188 6.59375 -5.359375 L 4.859375 0 L 1.25 0 L 3.765625 -8.03125 C 4.253906 -9.582031 4.660156 -10.867188 4.984375 -11.890625 C 5.304688 -12.921875 5.554688 -13.78125 5.734375 -14.46875 C 5.921875 -15.15625 6.046875 -15.691406 6.109375 -16.078125 C 6.179688 -16.460938 6.21875 -16.796875 6.21875 -17.078125 C 6.21875 -17.648438 6.019531 -17.9375 5.625 -17.9375 C 5.363281 -17.9375 5.046875 -17.832031 4.671875 -17.625 C 4.296875 -17.414062 3.925781 -17.15625 3.5625 -16.84375 C 3.207031 -16.539062 2.867188 -16.191406 2.546875 -15.796875 C 2.222656 -15.410156 1.984375 -15.035156 1.828125 -14.671875 Z M 0.8125 -15.1875 "/></g></g></g></svg>