<svg xmlns="http://www.w3.org/2000/svg" xmlns:xlink="http://www.w3.org/1999/xlink" width="1366" zoomAndPan="magnify" viewBox="0 0 1024.5 576" height="768" preserveAspectRatio="xMidYMid meet" version="1.0"><defs><g/><clipPath id="40eed6d6d6"><path d="M 318.71875 50.25 L 732.777344 50.25 L 732.777344 244.601562 L 318.71875 244.601562 Z M 318.71875 50.25 " clip-rule="nonzero"/></clipPath><clipPath id="2957a692fe"><path d="M 729.996094 244.421875 L 321.5 244.421875 C 320.074219 244.421875 318.894531 243.242188 318.894531 241.816406 L 318.894531 53.03125 C 318.894531 51.605469 320.074219 50.429688 321.5 50.429688 L 729.960938 50.429688 C 731.386719 50.429688 732.5625 51.605469 732.5625 53.03125 L 732.5625 241.78125 C 732.597656 243.242188 731.421875 244.421875 729.996094 244.421875 Z M 729.996094 244.421875 " clip-rule="nonzero"/></clipPath><clipPath id="098fba5376"><path d="M 318.003906 49.535156 L 733.488281 49.535156 L 733.488281 245.3125 L 318.003906 245.3125 Z M 318.003906 49.535156 " clip-rule="nonzero"/></clipPath><clipPath id="86eaf677e3"><path d="M 729.996094 51.210938 C 730.992188 51.210938 731.8125 52.03125 731.8125 53.03125 L 731.8125 241.816406 C 731.8125 242.816406 730.992188 243.636719 729.996094 243.636719 L 321.5 243.636719 C 320.5 243.636719 319.679688 242.816406 319.679688 241.816406 L 319.679688 53.03125 C 319.679688 52.03125 320.5 51.210938 321.5 51.210938 L 729.996094 51.210938 M 729.996094 49.535156 L 321.5 49.535156 C 319.574219 49.535156 318.003906 51.105469 318.003906 53.03125 L 318.003906 241.816406 C 318.003906 243.742188 319.574219 245.3125 321.5 245.3125 L 729.996094 245.3125 C 731.921875 245.3125 733.488281 243.742188 733.488281 241.816406 L 733.488281 53.03125 C 733.488281 51.105469 731.921875 49.535156 729.996094 49.535156 Z M 729.996094 49.535156 " clip-rule="nonzero"/></clipPath><clipPath id="630e5ff379"><path d="M 309.769531 41 L 723.828125 41 L 723.828125 235.292969 L 309.769531 235.292969 Z M 309.769531 41 " clip-rule="nonzero"/></clipPath><clipPath id="92420dcffe"><path d="M 721.046875 235.113281 L 312.550781 235.113281 C 311.125 235.113281 309.945312 233.9375 309.945312 232.511719 L 309.945312 43.722656 C 309.945312 42.296875 311.125 41.121094 312.550781 41.121094 L 721.011719 41.121094 C 722.4375 41.121094 723.613281 42.296875 723.613281 43.722656 L 723.613281 232.476562 C 723.648438 233.9375 722.472656 235.113281 721.046875 235.113281 Z M 721.046875 235.113281 " clip-rule="nonzero"/></clipPath><clipPath id="21e49aa641"><path d="M 309.054688 40.230469 L 724.539062 40.230469 L 724.539062 236.003906 L 309.054688 236.003906 Z M 309.054688 40.230469 " clip-rule="nonzero"/></clipPath><clipPath id="95cf2af5ca"><path d="M 721.046875 41.90625 C 722.042969 41.90625 722.863281 42.726562 722.863281 43.722656 L 722.863281 232.511719 C 722.863281 233.507812 722.042969 234.328125 721.046875 234.328125 L 312.550781 234.328125 C 311.550781 234.328125 310.730469 233.507812 310.730469 232.511719 L 310.730469 43.722656 C 310.730469 42.726562 311.550781 41.90625 312.550781 41.90625 L 721.046875 41.90625 M 721.046875 40.230469 L 312.550781 40.230469 C 310.625 40.230469 309.054688 41.800781 309.054688 43.722656 L 309.054688 232.511719 C 309.054688 234.4375 310.625 236.003906 312.550781 236.003906 L 721.046875 236.003906 C 722.972656 236.003906 724.539062 234.4375 724.539062 232.511719 L 724.539062 43.722656 C 724.539062 41.800781 722.972656 40.230469 721.046875 40.230469 Z M 721.046875 40.230469 " clip-rule="nonzero"/></clipPath><clipPath id="e1db6aed2e"><path d="M 324 52 L 338 52 L 338 66 L 324 66 Z M 324 52 " clip-rule="nonzero"/></clipPath><clipPath id="3f19553b5a"><path d="M 330.664062 50.105469 L 340.089844 59.53125 L 330.664062 68.953125 L 321.242188 59.53125 Z M 330.664062 50.105469 " clip-rule="nonzero"/></clipPath><clipPath id="62cb8c10bd"><path d="M 330.664062 50.105469 L 340.089844 59.53125 L 330.664062 68.953125 L 321.242188 59.53125 Z M 330.664062 50.105469 " clip-rule="nonzero"/></clipPath><clipPath id="15af0525ff"><path d="M 328 56 L 334 56 L 334 62 L 328 62 Z M 328 56 " clip-rule="nonzero"/></clipPath><clipPath id="47484d2f97"><path d="M 330.664062 50.105469 L 340.089844 59.53125 L 330.664062 68.953125 L 321.242188 59.53125 Z M 330.664062 50.105469 " clip-rule="nonzero"/></clipPath><clipPath id="4b331358c5"><path d="M 330.664062 50.105469 L 340.089844 59.53125 L 330.664062 68.953125 L 321.242188 59.53125 Z M 330.664062 50.105469 " clip-rule="nonzero"/></clipPath><clipPath id="003f253846"><path d="M 363.34375 52.804688 L 375.886719 52.804688 L 375.886719 65.347656 L 363.34375 65.347656 Z M 363.34375 52.804688 " clip-rule="nonzero"/></clipPath><clipPath id="5aecc79c10"><path d="M 343.605469 52.804688 L 356.929688 52.804688 L 356.929688 66 L 343.605469 66 Z M 343.605469 52.804688 " clip-rule="nonzero"/></clipPath><clipPath id="f7ad66cec5"><path d="M 309.054688 77.683594 L 724.515625 77.683594 L 724.515625 80.816406 L 309.054688 80.816406 Z M 309.054688 77.683594 " clip-rule="nonzero"/></clipPath></defs><g clip-path="url(#40eed6d6d6)"><g clip-path="url(#2957a692fe)"><path fill="#272727" d="M 318.003906 49.535156 L 733.488281 49.535156 L 733.488281 245.3125 L 318.003906 245.3125 Z M 318.003906 49.535156 " fill-opacity="1" fill-rule="nonzero"/></g></g><g clip-path="url(#098fba5376)"><g clip-path="url(#86eaf677e3)"><path fill="#272727" d="M 318.003906 49.535156 L 733.488281 49.535156 L 733.488281 245.3125 L 318.003906 245.3125 Z M 318.003906 49.535156 " fill-opacity="1" fill-rule="nonzero"/></g></g><g clip-path="url(#630e5ff379)"><g clip-path="url(#92420dcffe)"><path fill="#f4f4f4" d="M 309.054688 40.230469 L 724.539062 40.230469 L 724.539062 236.003906 L 309.054688 236.003906 Z M 309.054688 40.230469 " fill-opacity="1" fill-rule="nonzero"/></g></g><g clip-path="url(#21e49aa641)"><g clip-path="url(#95cf2af5ca)"><path fill="#272727" d="M 309.054688 40.230469 L 724.539062 40.230469 L 724.539062 236.003906 L 309.054688 236.003906 Z M 309.054688 40.230469 " fill-opacity="1" fill-rule="nonzero"/></g></g><g clip-path="url(#e1db6aed2e)"><g clip-path="url(#3f19553b5a)"><g clip-path="url(#62cb8c10bd)"><path fill="#272727" d="M 326.058594 63.929688 C 323.515625 61.390625 323.515625 57.253906 326.058594 54.714844 C 328.597656 52.171875 332.734375 52.171875 335.273438 54.714844 C 337.816406 57.253906 337.8125 61.390625 335.273438 63.929688 C 332.734375 66.472656 328.597656 66.472656 326.058594 63.929688 Z M 334.816406 55.171875 C 332.527344 52.882812 328.804688 52.882812 326.511719 55.171875 C 324.222656 57.460938 324.226562 61.183594 326.515625 63.472656 C 328.804688 65.765625 332.527344 65.765625 334.816406 63.476562 C 337.105469 61.183594 337.105469 57.460938 334.816406 55.171875 Z M 334.816406 55.171875 " fill-opacity="1" fill-rule="nonzero"/></g></g></g><g clip-path="url(#15af0525ff)"><g clip-path="url(#47484d2f97)"><g clip-path="url(#4b331358c5)"><path fill="#272727" d="M 332.554688 56.933594 C 331.152344 58.335938 329.75 59.738281 328.347656 61.140625 C 328.074219 61.417969 328.5 61.84375 328.777344 61.566406 C 330.179688 60.167969 331.582031 58.765625 332.984375 57.363281 C 333.257812 57.085938 332.832031 56.660156 332.554688 56.933594 Z M 332.554688 56.933594 " fill-opacity="1" fill-rule="nonzero"/><path fill="#272727" d="M 332.984375 61.140625 C 331.582031 59.738281 330.179688 58.335938 328.777344 56.933594 C 328.5 56.660156 328.074219 57.085938 328.347656 57.363281 C 329.75 58.765625 331.152344 60.167969 332.554688 61.570312 C 332.832031 61.84375 333.257812 61.417969 332.984375 61.140625 Z M 332.984375 61.140625 " fill-opacity="1" fill-rule="nonzero"/></g></g></g><g clip-path="url(#003f253846)"><path fill="#272727" d="M 369.777344 65.667969 C 366.230469 65.667969 363.34375 62.78125 363.34375 59.238281 C 363.34375 55.691406 366.230469 52.804688 369.777344 52.804688 C 373.320312 52.804688 376.207031 55.691406 376.207031 59.238281 C 376.207031 62.78125 373.320312 65.667969 369.777344 65.667969 Z M 369.777344 53.441406 C 366.582031 53.441406 363.980469 56.042969 363.980469 59.238281 C 363.980469 62.429688 366.582031 65.03125 369.777344 65.03125 C 372.96875 65.03125 375.570312 62.429688 375.570312 59.238281 C 375.570312 56.042969 372.96875 53.441406 369.777344 53.441406 Z M 369.777344 53.441406 " fill-opacity="1" fill-rule="nonzero"/></g><path fill="#272727" d="M 372.660156 58.886719 C 370.703125 58.886719 368.746094 58.886719 366.789062 58.886719 C 366.40625 58.886719 366.40625 59.484375 366.789062 59.484375 C 368.746094 59.484375 370.703125 59.484375 372.660156 59.484375 C 373.046875 59.484375 373.046875 58.886719 372.660156 58.886719 Z M 372.660156 58.886719 " fill-opacity="1" fill-rule="nonzero"/><g clip-path="url(#5aecc79c10)"><path fill="#272727" d="M 350.121094 65.839844 C 346.527344 65.839844 343.605469 62.914062 343.605469 59.324219 C 343.605469 55.730469 346.527344 52.804688 350.121094 52.804688 C 353.714844 52.804688 356.636719 55.730469 356.636719 59.324219 C 356.636719 62.914062 353.714844 65.839844 350.121094 65.839844 Z M 350.121094 53.449219 C 346.882812 53.449219 344.25 56.085938 344.25 59.324219 C 344.25 62.558594 346.882812 65.195312 350.121094 65.195312 C 353.359375 65.195312 355.992188 62.558594 355.992188 59.324219 C 355.992188 56.085938 353.359375 53.449219 350.121094 53.449219 Z M 350.121094 53.449219 " fill-opacity="1" fill-rule="nonzero"/></g><path fill="#272727" d="M 349.769531 56.296875 C 349.769531 58.28125 349.769531 60.261719 349.769531 62.246094 C 349.769531 62.636719 350.375 62.636719 350.375 62.246094 C 350.375 60.261719 350.375 58.28125 350.375 56.296875 C 350.375 55.90625 349.769531 55.90625 349.769531 56.296875 Z M 349.769531 56.296875 " fill-opacity="1" fill-rule="nonzero"/><path fill="#272727" d="M 353.046875 58.96875 C 351.0625 58.96875 349.082031 58.96875 347.097656 58.96875 C 346.707031 58.96875 346.707031 59.574219 347.097656 59.574219 C 349.082031 59.574219 351.0625 59.574219 353.046875 59.574219 C 353.4375 59.574219 353.4375 58.96875 353.046875 58.96875 Z M 353.046875 58.96875 " fill-opacity="1" fill-rule="nonzero"/><g clip-path="url(#f7ad66cec5)"><path fill="#272727" d="M 309.054688 77.683594 L 724.515625 77.683594 L 724.515625 80.816406 L 309.054688 80.816406 Z M 309.054688 77.683594 " fill-opacity="1" fill-rule="nonzero"/></g><g fill="#272727" fill-opacity="1"><g transform="translate(464.506571, 128.561117)"><g><path d="M 13.488281 0 L 13.488281 -34.761719 L 21.839844 0 L 31.65625 0 L 40.007812 -34.984375 L 40.007812 0 L 50.109375 0 L 50.109375 -43.054688 L 33.800781 -43.054688 L 26.746094 -12.074219 L 19.636719 -43.054688 L 3.386719 -43.054688 L 3.386719 0 Z M 13.488281 0 "/></g></g></g><g fill="#272727" fill-opacity="1"><g transform="translate(518.057582, 128.561117)"><g><path d="M 18.507812 0.675781 C 27.539062 0.675781 32.445312 -4.738281 34.253906 -11.058594 L 24.714844 -11.058594 C 23.925781 -9.085938 21.894531 -7.449219 19.015625 -7.449219 C 16.648438 -7.449219 14.726562 -8.183594 13.375 -9.875 C 12.582031 -10.835938 11.964844 -12.414062 11.738281 -13.996094 L 34.761719 -13.996094 L 34.761719 -15.628906 C 34.761719 -27.988281 26.632812 -32.671875 18.226562 -32.671875 C 6.660156 -32.671875 1.804688 -23.871094 1.804688 -15.742188 C 1.804688 -6.261719 8.351562 0.675781 18.507812 0.675781 Z M 12.019531 -20.710938 C 12.132812 -21.441406 12.414062 -22.515625 13.488281 -23.585938 C 14.839844 -24.941406 16.648438 -25.449219 18.566406 -25.449219 C 20.484375 -25.449219 22.289062 -24.941406 23.644531 -23.585938 C 24.660156 -22.570312 24.996094 -21.441406 25.167969 -20.710938 Z M 12.019531 -20.710938 "/></g></g></g><g fill="#272727" fill-opacity="1"><g transform="translate(554.623501, 128.561117)"><g><path d="M 16.648438 0 L 16.648438 -7.675781 L 14.277344 -7.675781 C 13.542969 -7.675781 12.414062 -7.898438 12.414062 -9.648438 L 12.414062 -43.054688 L 2.933594 -43.054688 L 2.933594 -6.375 C 2.933594 -2.3125 5.585938 0 10.269531 0 Z M 16.648438 0 "/></g></g></g><g fill="#272727" fill-opacity="1"><g transform="translate(366.715997, 184.989968)"><g><path d="M 31.035156 0 L 31.035156 -9.027344 L 13.488281 -9.027344 L 13.488281 -43.054688 L 3.386719 -43.054688 L 3.386719 0 Z M 31.035156 0 "/></g></g></g><g fill="#272727" fill-opacity="1"><g transform="translate(398.203316, 184.989968)"><g><path d="M 12.359375 0.675781 C 15.011719 0.675781 17.550781 0.28125 19.410156 -1.015625 C 20.425781 -1.691406 21.160156 -2.652344 21.667969 -3.894531 L 21.667969 0 L 31.148438 0 L 31.148438 -15.179688 C 31.148438 -21.105469 31.148438 -26.125 27.199219 -29.511719 C 24.660156 -31.714844 20.992188 -32.671875 17.265625 -32.671875 C 10.835938 -32.671875 4.230469 -29.34375 3.046875 -21.332031 L 12.472656 -21.332031 C 12.921875 -24.039062 15.011719 -25.5625 17.210938 -25.5625 C 18.621094 -25.5625 19.695312 -25.222656 20.425781 -24.433594 C 21.160156 -23.585938 21.613281 -22.347656 21.726562 -20.710938 L 13.429688 -19.242188 C 11.003906 -18.789062 8.125 -18.171875 5.867188 -16.703125 C 3.554688 -15.179688 1.863281 -12.808594 1.863281 -8.972656 C 1.863281 -2.539062 6.601562 0.675781 12.359375 0.675781 Z M 15.121094 -6.488281 C 13.089844 -6.488281 11.34375 -7.28125 11.34375 -9.3125 C 11.34375 -10.214844 11.679688 -10.835938 12.1875 -11.34375 C 12.980469 -12.074219 13.996094 -12.472656 16.082031 -12.867188 L 21.894531 -13.996094 C 21.78125 -10.496094 21.160156 -8.464844 18.566406 -7.28125 C 17.4375 -6.769531 16.195312 -6.488281 15.121094 -6.488281 Z M 15.121094 -6.488281 "/></g></g></g><g fill="#272727" fill-opacity="1"><g transform="translate(432.117077, 184.989968)"><g><path d="M 17.492188 0.675781 C 26.015625 0.675781 31.207031 -3.613281 31.207031 -9.988281 C 31.207031 -17.4375 24.207031 -18.734375 18.621094 -19.75 C 14.953125 -20.425781 11.90625 -20.992188 11.90625 -23.136719 C 11.90625 -24.601562 13.429688 -25.5625 15.742188 -25.5625 C 18.171875 -25.5625 20.597656 -24.433594 21.5 -21.386719 L 30.472656 -21.386719 C 29.285156 -28.664062 23.585938 -32.671875 15.800781 -32.671875 C 9.140625 -32.671875 2.933594 -29.964844 2.933594 -22.910156 C 2.933594 -15.347656 9.820312 -13.9375 15.292969 -12.867188 C 18.902344 -12.132812 21.894531 -11.511719 21.894531 -9.367188 C 21.894531 -7.5625 19.917969 -6.488281 17.378906 -6.488281 C 14.671875 -6.488281 11.90625 -7.84375 10.835938 -11.058594 L 1.636719 -11.058594 C 2.707031 -2.144531 10.777344 0.675781 17.492188 0.675781 Z M 17.492188 0.675781 "/></g></g></g><g fill="#272727" fill-opacity="1"><g transform="translate(465.297263, 184.989968)"><g><path d="M 12.582031 0 L 12.582031 -15.347656 L 23.871094 0 L 35.15625 0 L 21.273438 -18.226562 L 34.421875 -31.996094 L 22.742188 -31.996094 L 12.582031 -20.765625 L 12.582031 -43.054688 L 3.105469 -43.054688 L 3.105469 0 Z M 12.582031 0 "/></g></g></g><g fill="#272727" fill-opacity="1"><g transform="translate(500.508897, 184.989968)"><g><path d="M 18.621094 0.675781 C 28.777344 0.675781 35.4375 -6.039062 35.4375 -16.195312 C 35.4375 -25.957031 28.664062 -32.671875 18.621094 -32.671875 C 8.578125 -32.671875 1.804688 -26.015625 1.804688 -16.195312 C 1.804688 -5.980469 8.632812 0.675781 18.621094 0.675781 Z M 18.621094 -7.449219 C 14.390625 -7.449219 11.566406 -10.835938 11.566406 -16.195312 C 11.566406 -21.21875 14.390625 -24.601562 18.621094 -24.601562 C 22.910156 -24.601562 25.5625 -21.160156 25.5625 -16.195312 C 25.5625 -10.945312 22.910156 -7.449219 18.621094 -7.449219 Z M 18.621094 -7.449219 "/></g></g></g><g fill="#272727" fill-opacity="1"><g transform="translate(537.751951, 184.989968)"><g><path d="M 19.523438 0 L 24.265625 -19.242188 L 28.777344 0 L 37.75 0 L 47.964844 -31.996094 L 37.921875 -31.996094 L 33.066406 -13.488281 L 28.214844 -31.996094 L 20.089844 -31.996094 L 15.292969 -13.375 L 10.609375 -31.996094 L 0.507812 -31.996094 L 10.496094 0 Z M 19.523438 0 "/></g></g></g><g fill="#272727" fill-opacity="1"><g transform="translate(586.280797, 184.989968)"><g><path d="M 17.492188 0.675781 C 26.015625 0.675781 31.207031 -3.613281 31.207031 -9.988281 C 31.207031 -17.4375 24.207031 -18.734375 18.621094 -19.75 C 14.953125 -20.425781 11.90625 -20.992188 11.90625 -23.136719 C 11.90625 -24.601562 13.429688 -25.5625 15.742188 -25.5625 C 18.171875 -25.5625 20.597656 -24.433594 21.5 -21.386719 L 30.472656 -21.386719 C 29.285156 -28.664062 23.585938 -32.671875 15.800781 -32.671875 C 9.140625 -32.671875 2.933594 -29.964844 2.933594 -22.910156 C 2.933594 -15.347656 9.820312 -13.9375 15.292969 -12.867188 C 18.902344 -12.132812 21.894531 -11.511719 21.894531 -9.367188 C 21.894531 -7.5625 19.917969 -6.488281 17.378906 -6.488281 C 14.671875 -6.488281 11.90625 -7.84375 10.835938 -11.058594 L 1.636719 -11.058594 C 2.707031 -2.144531 10.777344 0.675781 17.492188 0.675781 Z M 17.492188 0.675781 "/></g></g></g><g fill="#272727" fill-opacity="1"><g transform="translate(619.460982, 184.989968)"><g><path d="M 12.582031 0 L 12.582031 -15.347656 L 23.871094 0 L 35.15625 0 L 21.273438 -18.226562 L 34.421875 -31.996094 L 22.742188 -31.996094 L 12.582031 -20.765625 L 12.582031 -43.054688 L 3.105469 -43.054688 L 3.105469 0 Z M 12.582031 0 "/></g></g></g><g fill="#272727" fill-opacity="1"><g transform="translate(654.672602, 184.989968)"><g><path d="M 7.84375 -34.195312 C 10.777344 -34.195312 13.203125 -36 13.203125 -39.046875 C 13.203125 -42.039062 10.777344 -43.957031 7.84375 -43.957031 C 4.910156 -43.957031 2.484375 -42.039062 2.484375 -39.046875 C 2.484375 -36 4.910156 -34.195312 7.84375 -34.195312 Z M 12.582031 0 L 12.582031 -31.996094 L 3.105469 -31.996094 L 3.105469 0 Z M 12.582031 0 "/></g></g></g><g fill="#272727" fill-opacity="1"><g transform="translate(444.764186, 213.670842)"><g><path d="M 9.46875 -12.8125 L 9.984375 -12.8125 L 9.265625 -9.46875 L 8.6875 -9.46875 C 8.65625 -10.5 8.46875 -11.238281 8.125 -11.6875 C 7.789062 -12.144531 7.257812 -12.375 6.53125 -12.375 C 6.175781 -12.375 5.851562 -12.320312 5.5625 -12.21875 C 5.269531 -12.125 5.019531 -11.984375 4.8125 -11.796875 C 4.601562 -11.617188 4.4375 -11.410156 4.3125 -11.171875 C 4.195312 -10.929688 4.140625 -10.671875 4.140625 -10.390625 C 4.140625 -9.984375 4.25 -9.617188 4.46875 -9.296875 C 4.695312 -8.984375 4.984375 -8.6875 5.328125 -8.40625 C 5.679688 -8.132812 6.054688 -7.851562 6.453125 -7.5625 C 6.859375 -7.28125 7.234375 -6.96875 7.578125 -6.625 C 7.921875 -6.289062 8.203125 -5.910156 8.421875 -5.484375 C 8.648438 -5.054688 8.765625 -4.550781 8.765625 -3.96875 C 8.765625 -3.394531 8.648438 -2.851562 8.421875 -2.34375 C 8.203125 -1.84375 7.894531 -1.40625 7.5 -1.03125 C 7.113281 -0.65625 6.660156 -0.359375 6.140625 -0.140625 C 5.617188 0.0664062 5.0625 0.171875 4.46875 0.171875 C 3.226562 0.171875 2.144531 -0.316406 1.21875 -1.296875 L 0.859375 0 L 0.265625 0 L 0.984375 -4.3125 L 1.546875 -4.3125 C 1.617188 -3.144531 1.90625 -2.253906 2.40625 -1.640625 C 2.90625 -1.035156 3.597656 -0.734375 4.484375 -0.734375 C 4.890625 -0.734375 5.257812 -0.789062 5.59375 -0.90625 C 5.9375 -1.03125 6.226562 -1.195312 6.46875 -1.40625 C 6.71875 -1.613281 6.910156 -1.859375 7.046875 -2.140625 C 7.191406 -2.429688 7.265625 -2.75 7.265625 -3.09375 C 7.265625 -3.5625 7.144531 -3.976562 6.90625 -4.34375 C 6.664062 -4.707031 6.367188 -5.046875 6.015625 -5.359375 C 5.671875 -5.679688 5.285156 -5.988281 4.859375 -6.28125 C 4.441406 -6.570312 4.054688 -6.882812 3.703125 -7.21875 C 3.359375 -7.550781 3.066406 -7.914062 2.828125 -8.3125 C 2.597656 -8.71875 2.484375 -9.179688 2.484375 -9.703125 C 2.484375 -10.191406 2.585938 -10.648438 2.796875 -11.078125 C 3.003906 -11.503906 3.285156 -11.875 3.640625 -12.1875 C 4.003906 -12.507812 4.429688 -12.765625 4.921875 -12.953125 C 5.410156 -13.140625 5.929688 -13.234375 6.484375 -13.234375 C 7.015625 -13.234375 7.488281 -13.140625 7.90625 -12.953125 C 8.320312 -12.773438 8.726562 -12.488281 9.125 -12.09375 Z M 9.46875 -12.8125 "/></g></g></g><g fill="#272727" fill-opacity="1"><g transform="translate(454.909293, 213.670842)"><g><path d="M 3.171875 0.171875 C 2.785156 0.171875 2.425781 0.0976562 2.09375 -0.046875 C 1.757812 -0.203125 1.46875 -0.425781 1.21875 -0.71875 C 0.96875 -1.019531 0.769531 -1.378906 0.625 -1.796875 C 0.476562 -2.222656 0.40625 -2.703125 0.40625 -3.234375 C 0.40625 -3.972656 0.539062 -4.695312 0.8125 -5.40625 C 1.09375 -6.125 1.457031 -6.757812 1.90625 -7.3125 C 2.363281 -7.863281 2.882812 -8.304688 3.46875 -8.640625 C 4.050781 -8.984375 4.65625 -9.15625 5.28125 -9.15625 C 5.6875 -9.15625 6.0625 -9.078125 6.40625 -8.921875 C 6.75 -8.773438 7.039062 -8.554688 7.28125 -8.265625 C 7.53125 -7.984375 7.722656 -7.640625 7.859375 -7.234375 C 8.003906 -6.835938 8.078125 -6.394531 8.078125 -5.90625 C 8.078125 -5.195312 7.9375 -4.476562 7.65625 -3.75 C 7.375 -3.03125 7.003906 -2.378906 6.546875 -1.796875 C 6.085938 -1.222656 5.5625 -0.75 4.96875 -0.375 C 4.382812 -0.0078125 3.785156 0.171875 3.171875 0.171875 Z M 3.28125 -0.671875 C 3.664062 -0.671875 4.046875 -0.867188 4.421875 -1.265625 C 4.796875 -1.660156 5.132812 -2.160156 5.4375 -2.765625 C 5.738281 -3.378906 5.984375 -4.039062 6.171875 -4.75 C 6.359375 -5.457031 6.453125 -6.132812 6.453125 -6.78125 C 6.453125 -7.382812 6.34375 -7.796875 6.125 -8.015625 C 5.914062 -8.242188 5.632812 -8.359375 5.28125 -8.359375 C 5.03125 -8.359375 4.773438 -8.269531 4.515625 -8.09375 C 4.265625 -7.925781 4.023438 -7.6875 3.796875 -7.375 C 3.578125 -7.070312 3.367188 -6.722656 3.171875 -6.328125 C 2.972656 -5.929688 2.796875 -5.507812 2.640625 -5.0625 C 2.492188 -4.625 2.378906 -4.175781 2.296875 -3.71875 C 2.222656 -3.257812 2.1875 -2.820312 2.1875 -2.40625 C 2.1875 -1.769531 2.285156 -1.320312 2.484375 -1.0625 C 2.691406 -0.800781 2.957031 -0.671875 3.28125 -0.671875 Z M 3.28125 -0.671875 "/></g></g></g><g fill="#272727" fill-opacity="1"><g transform="translate(463.782021, 213.670842)"><g><path d="M 2.578125 -1.234375 C 2.285156 -0.0859375 1.988281 0.847656 1.6875 1.578125 C 1.394531 2.316406 1.078125 2.894531 0.734375 3.3125 C 0.398438 3.726562 0.0390625 4.015625 -0.34375 4.171875 C -0.738281 4.328125 -1.175781 4.40625 -1.65625 4.40625 C -2.132812 4.40625 -2.523438 4.28125 -2.828125 4.03125 C -3.140625 3.789062 -3.296875 3.488281 -3.296875 3.125 C -3.296875 2.84375 -3.21875 2.617188 -3.0625 2.453125 C -2.914062 2.285156 -2.710938 2.203125 -2.453125 2.203125 C -2.222656 2.203125 -2.0625 2.265625 -1.96875 2.390625 C -1.875 2.515625 -1.796875 2.648438 -1.734375 2.796875 C -1.671875 2.941406 -1.597656 3.078125 -1.515625 3.203125 C -1.441406 3.328125 -1.289062 3.390625 -1.0625 3.390625 C -0.800781 3.390625 -0.5625 3.253906 -0.34375 2.984375 C -0.132812 2.710938 0.0234375 2.359375 0.140625 1.921875 L 2.59375 -7.640625 L 0.96875 -7.640625 L 1.1875 -8.421875 L 2.796875 -8.421875 C 3.046875 -9.429688 3.316406 -10.289062 3.609375 -11 C 3.910156 -11.71875 4.226562 -12.304688 4.5625 -12.765625 C 4.90625 -13.222656 5.269531 -13.554688 5.65625 -13.765625 C 6.039062 -13.972656 6.453125 -14.078125 6.890625 -14.078125 C 7.554688 -14.078125 8.101562 -13.9375 8.53125 -13.65625 C 8.96875 -13.382812 9.1875 -13.039062 9.1875 -12.625 C 9.1875 -12.363281 9.113281 -12.140625 8.96875 -11.953125 C 8.820312 -11.773438 8.617188 -11.6875 8.359375 -11.6875 C 8.148438 -11.6875 7.984375 -11.722656 7.859375 -11.796875 C 7.742188 -11.878906 7.65625 -11.984375 7.59375 -12.109375 C 7.53125 -12.234375 7.484375 -12.363281 7.453125 -12.5 C 7.429688 -12.632812 7.394531 -12.765625 7.34375 -12.890625 C 7.300781 -13.015625 7.234375 -13.117188 7.140625 -13.203125 C 7.054688 -13.285156 6.921875 -13.328125 6.734375 -13.328125 C 6.503906 -13.328125 6.28125 -13.203125 6.0625 -12.953125 C 5.84375 -12.710938 5.628906 -12.375 5.421875 -11.9375 C 5.222656 -11.5 5.03125 -10.976562 4.84375 -10.375 C 4.664062 -9.78125 4.503906 -9.128906 4.359375 -8.421875 L 6.078125 -8.421875 L 5.84375 -7.640625 L 4.171875 -7.640625 Z M 2.578125 -1.234375 "/></g></g></g><g fill="#272727" fill-opacity="1"><g transform="translate(469.448352, 213.670842)"><g><path d="M 3.984375 -7.578125 L 2.578125 -2.921875 C 2.390625 -2.304688 2.289062 -1.84375 2.28125 -1.53125 C 2.28125 -1.425781 2.300781 -1.332031 2.34375 -1.25 C 2.394531 -1.175781 2.484375 -1.140625 2.609375 -1.140625 C 2.816406 -1.140625 3.03125 -1.210938 3.25 -1.359375 C 3.476562 -1.515625 3.695312 -1.695312 3.90625 -1.90625 C 4.113281 -2.113281 4.300781 -2.328125 4.46875 -2.546875 C 4.632812 -2.773438 4.757812 -2.953125 4.84375 -3.078125 L 5.328125 -2.78125 C 5.140625 -2.394531 4.894531 -2.023438 4.59375 -1.671875 C 4.300781 -1.316406 3.988281 -1.003906 3.65625 -0.734375 C 3.332031 -0.460938 3.003906 -0.242188 2.671875 -0.078125 C 2.335938 0.0859375 2.035156 0.171875 1.765625 0.171875 C 1.367188 0.171875 1.082031 0.0859375 0.90625 -0.078125 C 0.726562 -0.253906 0.640625 -0.539062 0.640625 -0.9375 C 0.640625 -1.15625 0.675781 -1.457031 0.75 -1.84375 C 0.832031 -2.226562 0.972656 -2.753906 1.171875 -3.421875 L 2.421875 -7.578125 L 0.96875 -7.578125 L 1.1875 -8.359375 L 2.671875 -8.359375 L 3.546875 -11.28125 L 5.109375 -11.28125 L 4.21875 -8.359375 L 6.078125 -8.359375 L 5.84375 -7.578125 Z M 3.984375 -7.578125 "/></g></g></g><g fill="#272727" fill-opacity="1"><g transform="translate(475.640604, 213.670842)"><g><path d="M 6.90625 -1.640625 C 6.394531 -1.054688 5.863281 -0.609375 5.3125 -0.296875 C 4.757812 0.015625 4.203125 0.171875 3.640625 0.171875 C 3.023438 0.171875 2.539062 -0.0234375 2.1875 -0.421875 C 1.832031 -0.828125 1.65625 -1.394531 1.65625 -2.125 C 1.65625 -3.53125 2.390625 -5.21875 3.859375 -7.1875 L 3.8125 -7.25 C 3.507812 -7.25 3.253906 -7.289062 3.046875 -7.375 C 2.847656 -7.46875 2.675781 -7.570312 2.53125 -7.6875 C 2.394531 -7.800781 2.269531 -7.898438 2.15625 -7.984375 C 2.050781 -8.078125 1.9375 -8.125 1.8125 -8.125 C 1.632812 -8.125 1.546875 -8.03125 1.546875 -7.84375 C 1.546875 -7.738281 1.578125 -7.644531 1.640625 -7.5625 C 1.703125 -7.488281 1.769531 -7.410156 1.84375 -7.328125 C 1.914062 -7.253906 1.984375 -7.164062 2.046875 -7.0625 C 2.109375 -6.96875 2.140625 -6.851562 2.140625 -6.71875 C 2.140625 -6.519531 2.054688 -6.351562 1.890625 -6.21875 C 1.734375 -6.09375 1.535156 -6.03125 1.296875 -6.03125 C 0.992188 -6.03125 0.765625 -6.117188 0.609375 -6.296875 C 0.453125 -6.472656 0.375 -6.726562 0.375 -7.0625 C 0.375 -7.332031 0.429688 -7.59375 0.546875 -7.84375 C 0.660156 -8.101562 0.8125 -8.332031 1 -8.53125 C 1.195312 -8.726562 1.421875 -8.878906 1.671875 -8.984375 C 1.921875 -9.097656 2.179688 -9.15625 2.453125 -9.15625 C 2.691406 -9.15625 2.890625 -9.117188 3.046875 -9.046875 C 3.210938 -8.972656 3.363281 -8.890625 3.5 -8.796875 C 3.632812 -8.703125 3.765625 -8.617188 3.890625 -8.546875 C 4.023438 -8.472656 4.175781 -8.4375 4.34375 -8.4375 C 4.4375 -8.4375 4.519531 -8.453125 4.59375 -8.484375 C 4.664062 -8.515625 4.753906 -8.582031 4.859375 -8.6875 C 4.984375 -8.8125 5.101562 -8.921875 5.21875 -9.015625 C 5.34375 -9.109375 5.488281 -9.15625 5.65625 -9.15625 C 5.882812 -9.15625 6 -9.046875 6 -8.828125 C 6 -8.785156 5.992188 -8.742188 5.984375 -8.703125 C 5.972656 -8.671875 5.941406 -8.617188 5.890625 -8.546875 C 5.835938 -8.484375 5.765625 -8.394531 5.671875 -8.28125 C 5.585938 -8.175781 5.46875 -8.035156 5.3125 -7.859375 C 4.976562 -7.472656 4.6875 -7.0625 4.4375 -6.625 C 4.1875 -6.195312 3.972656 -5.765625 3.796875 -5.328125 C 3.628906 -4.898438 3.5 -4.472656 3.40625 -4.046875 C 3.320312 -3.617188 3.28125 -3.21875 3.28125 -2.84375 C 3.28125 -2.289062 3.367188 -1.859375 3.546875 -1.546875 C 3.722656 -1.242188 3.976562 -1.09375 4.3125 -1.09375 C 4.613281 -1.09375 4.96875 -1.238281 5.375 -1.53125 C 5.78125 -1.832031 6.21875 -2.253906 6.6875 -2.796875 C 6.664062 -3.035156 6.644531 -3.28125 6.625 -3.53125 C 6.601562 -3.78125 6.59375 -4.003906 6.59375 -4.203125 C 6.59375 -4.816406 6.664062 -5.421875 6.8125 -6.015625 C 6.957031 -6.609375 7.140625 -7.140625 7.359375 -7.609375 C 7.585938 -8.078125 7.847656 -8.453125 8.140625 -8.734375 C 8.441406 -9.015625 8.742188 -9.15625 9.046875 -9.15625 C 9.296875 -9.15625 9.519531 -9.046875 9.71875 -8.828125 C 9.914062 -8.617188 10.015625 -8.257812 10.015625 -7.75 C 10.015625 -7.144531 9.847656 -6.4375 9.515625 -5.625 C 9.191406 -4.820312 8.71875 -3.984375 8.09375 -3.109375 C 8.195312 -2.566406 8.382812 -2.125 8.65625 -1.78125 C 8.9375 -1.4375 9.242188 -1.265625 9.578125 -1.265625 C 9.890625 -1.265625 10.207031 -1.410156 10.53125 -1.703125 C 10.863281 -2.003906 11.164062 -2.382812 11.4375 -2.84375 C 11.707031 -3.300781 11.929688 -3.804688 12.109375 -4.359375 C 12.285156 -4.921875 12.375 -5.46875 12.375 -6 C 12.375 -6.257812 12.351562 -6.484375 12.3125 -6.671875 C 12.269531 -6.867188 12.222656 -7.050781 12.171875 -7.21875 C 12.117188 -7.382812 12.070312 -7.539062 12.03125 -7.6875 C 12 -7.84375 11.984375 -8.015625 11.984375 -8.203125 C 11.984375 -8.835938 12.273438 -9.15625 12.859375 -9.15625 C 13.210938 -9.15625 13.460938 -9.023438 13.609375 -8.765625 C 13.765625 -8.503906 13.84375 -8.070312 13.84375 -7.46875 C 13.84375 -6.5625 13.695312 -5.648438 13.40625 -4.734375 C 13.113281 -3.828125 12.734375 -3.007812 12.265625 -2.28125 C 11.796875 -1.550781 11.265625 -0.957031 10.671875 -0.5 C 10.085938 -0.0507812 9.5 0.171875 8.90625 0.171875 C 8.4375 0.171875 8.03125 0.0195312 7.6875 -0.28125 C 7.34375 -0.59375 7.082031 -1.046875 6.90625 -1.640625 Z M 7.859375 -4.1875 C 8.148438 -4.675781 8.390625 -5.160156 8.578125 -5.640625 C 8.765625 -6.128906 8.859375 -6.625 8.859375 -7.125 C 8.859375 -7.550781 8.773438 -7.765625 8.609375 -7.765625 C 8.492188 -7.765625 8.382812 -7.691406 8.28125 -7.546875 C 8.175781 -7.398438 8.085938 -7.203125 8.015625 -6.953125 C 7.941406 -6.703125 7.878906 -6.410156 7.828125 -6.078125 C 7.785156 -5.742188 7.765625 -5.390625 7.765625 -5.015625 C 7.765625 -4.859375 7.769531 -4.710938 7.78125 -4.578125 C 7.800781 -4.441406 7.828125 -4.3125 7.859375 -4.1875 Z M 7.859375 -4.1875 "/></g></g></g><g fill="#272727" fill-opacity="1"><g transform="translate(490.060911, 213.670842)"><g><path d="M 5.640625 -8.28125 C 5.203125 -8.28125 4.753906 -8.082031 4.296875 -7.6875 C 3.835938 -7.289062 3.421875 -6.796875 3.046875 -6.203125 C 2.679688 -5.609375 2.378906 -4.96875 2.140625 -4.28125 C 1.898438 -3.601562 1.78125 -2.96875 1.78125 -2.375 C 1.78125 -1.96875 1.863281 -1.640625 2.03125 -1.390625 C 2.207031 -1.148438 2.441406 -1.03125 2.734375 -1.03125 C 2.992188 -1.03125 3.265625 -1.132812 3.546875 -1.34375 C 3.828125 -1.550781 4.097656 -1.828125 4.359375 -2.171875 C 4.628906 -2.523438 4.882812 -2.921875 5.125 -3.359375 C 5.363281 -3.796875 5.570312 -4.25 5.75 -4.71875 C 5.9375 -5.195312 6.078125 -5.660156 6.171875 -6.109375 C 6.273438 -6.554688 6.328125 -6.960938 6.328125 -7.328125 C 6.328125 -7.617188 6.265625 -7.847656 6.140625 -8.015625 C 6.015625 -8.191406 5.847656 -8.28125 5.640625 -8.28125 Z M 7.375 -9 L 8.796875 -9 L 7.828125 -6.390625 C 7.660156 -5.960938 7.5 -5.503906 7.34375 -5.015625 C 7.195312 -4.535156 7.0625 -4.066406 6.9375 -3.609375 C 6.820312 -3.160156 6.726562 -2.75 6.65625 -2.375 C 6.59375 -2 6.5625 -1.722656 6.5625 -1.546875 C 6.5625 -1.210938 6.671875 -1.046875 6.890625 -1.046875 C 7.046875 -1.046875 7.273438 -1.207031 7.578125 -1.53125 C 7.878906 -1.863281 8.21875 -2.289062 8.59375 -2.8125 L 9.03125 -2.453125 C 8.550781 -1.617188 8.035156 -0.972656 7.484375 -0.515625 C 6.941406 -0.0546875 6.414062 0.171875 5.90625 0.171875 C 5.644531 0.171875 5.441406 0.0703125 5.296875 -0.125 C 5.160156 -0.320312 5.09375 -0.648438 5.09375 -1.109375 C 5.09375 -1.203125 5.09375 -1.316406 5.09375 -1.453125 C 5.101562 -1.585938 5.117188 -1.769531 5.140625 -2 L 5.078125 -2.015625 C 4.898438 -1.703125 4.695312 -1.410156 4.46875 -1.140625 C 4.238281 -0.878906 3.988281 -0.648438 3.71875 -0.453125 C 3.445312 -0.253906 3.160156 -0.101562 2.859375 0 C 2.566406 0.113281 2.28125 0.171875 2 0.171875 C 1.425781 0.171875 0.976562 -0.046875 0.65625 -0.484375 C 0.332031 -0.921875 0.171875 -1.523438 0.171875 -2.296875 C 0.171875 -3.078125 0.332031 -3.875 0.65625 -4.6875 C 0.988281 -5.5 1.414062 -6.234375 1.9375 -6.890625 C 2.457031 -7.554688 3.03125 -8.097656 3.65625 -8.515625 C 4.289062 -8.941406 4.914062 -9.15625 5.53125 -9.15625 C 5.90625 -9.15625 6.207031 -9.066406 6.4375 -8.890625 C 6.675781 -8.722656 6.875 -8.441406 7.03125 -8.046875 Z M 7.375 -9 "/></g></g></g><g fill="#272727" fill-opacity="1"><g transform="translate(499.730998, 213.670842)"><g><path d="M 0.359375 -6.640625 C 0.484375 -6.921875 0.671875 -7.207031 0.921875 -7.5 C 1.179688 -7.800781 1.457031 -8.070312 1.75 -8.3125 C 2.050781 -8.5625 2.351562 -8.765625 2.65625 -8.921875 C 2.96875 -9.078125 3.238281 -9.15625 3.46875 -9.15625 C 3.738281 -9.15625 3.929688 -9.050781 4.046875 -8.84375 C 4.171875 -8.644531 4.234375 -8.320312 4.234375 -7.875 C 4.234375 -7.695312 4.222656 -7.519531 4.203125 -7.34375 C 4.191406 -7.175781 4.164062 -6.976562 4.125 -6.75 L 4.171875 -6.703125 C 4.304688 -7.023438 4.5 -7.34375 4.75 -7.65625 C 5 -7.976562 5.265625 -8.257812 5.546875 -8.5 C 5.835938 -8.75 6.132812 -8.945312 6.4375 -9.09375 C 6.738281 -9.25 7.019531 -9.328125 7.28125 -9.328125 C 7.601562 -9.328125 7.875 -9.222656 8.09375 -9.015625 C 8.320312 -8.804688 8.4375 -8.550781 8.4375 -8.25 C 8.4375 -7.957031 8.34375 -7.710938 8.15625 -7.515625 C 7.96875 -7.328125 7.726562 -7.234375 7.4375 -7.234375 C 7.25 -7.234375 7.101562 -7.265625 7 -7.328125 C 6.894531 -7.398438 6.800781 -7.472656 6.71875 -7.546875 C 6.632812 -7.617188 6.554688 -7.6875 6.484375 -7.75 C 6.421875 -7.820312 6.34375 -7.859375 6.25 -7.859375 C 6.03125 -7.859375 5.78125 -7.710938 5.5 -7.421875 C 5.21875 -7.128906 4.921875 -6.734375 4.609375 -6.234375 C 4.304688 -5.742188 4.003906 -5.164062 3.703125 -4.5 C 3.410156 -3.832031 3.140625 -3.113281 2.890625 -2.34375 L 2.125 0 L 0.546875 0 L 1.640625 -3.515625 C 1.859375 -4.191406 2.035156 -4.753906 2.171875 -5.203125 C 2.316406 -5.648438 2.425781 -6.019531 2.5 -6.3125 C 2.582031 -6.613281 2.640625 -6.847656 2.671875 -7.015625 C 2.703125 -7.191406 2.71875 -7.34375 2.71875 -7.46875 C 2.71875 -7.71875 2.628906 -7.84375 2.453125 -7.84375 C 2.347656 -7.84375 2.210938 -7.796875 2.046875 -7.703125 C 1.878906 -7.609375 1.71875 -7.492188 1.5625 -7.359375 C 1.40625 -7.222656 1.253906 -7.070312 1.109375 -6.90625 C 0.972656 -6.738281 0.867188 -6.578125 0.796875 -6.421875 Z M 0.359375 -6.640625 "/></g></g></g><g fill="#272727" fill-opacity="1"><g transform="translate(507.585825, 213.670842)"><g><path d="M 6.296875 -2.25 C 5.304688 -0.632812 4.097656 0.171875 2.671875 0.171875 C 1.890625 0.171875 1.285156 -0.0664062 0.859375 -0.546875 C 0.441406 -1.023438 0.234375 -1.707031 0.234375 -2.59375 C 0.234375 -3.375 0.394531 -4.15625 0.71875 -4.9375 C 1.039062 -5.71875 1.460938 -6.421875 1.984375 -7.046875 C 2.503906 -7.679688 3.085938 -8.191406 3.734375 -8.578125 C 4.378906 -8.960938 5.023438 -9.15625 5.671875 -9.15625 C 6.210938 -9.15625 6.65625 -9.015625 7 -8.734375 C 7.34375 -8.460938 7.515625 -8.113281 7.515625 -7.6875 C 7.515625 -7.289062 7.367188 -6.882812 7.078125 -6.46875 C 6.785156 -6.050781 6.382812 -5.65625 5.875 -5.28125 C 5.375 -4.90625 4.785156 -4.5625 4.109375 -4.25 C 3.441406 -3.945312 2.726562 -3.710938 1.96875 -3.546875 C 1.945312 -3.390625 1.929688 -3.234375 1.921875 -3.078125 C 1.910156 -2.921875 1.90625 -2.765625 1.90625 -2.609375 C 1.90625 -1.378906 2.335938 -0.765625 3.203125 -0.765625 C 3.617188 -0.765625 4.050781 -0.925781 4.5 -1.25 C 4.945312 -1.582031 5.363281 -2.035156 5.75 -2.609375 Z M 5.328125 -8.359375 C 5.035156 -8.359375 4.726562 -8.242188 4.40625 -8.015625 C 4.09375 -7.796875 3.789062 -7.492188 3.5 -7.109375 C 3.21875 -6.734375 2.957031 -6.300781 2.71875 -5.8125 C 2.476562 -5.332031 2.285156 -4.832031 2.140625 -4.3125 C 2.679688 -4.457031 3.179688 -4.648438 3.640625 -4.890625 C 4.109375 -5.128906 4.507812 -5.394531 4.84375 -5.6875 C 5.175781 -5.988281 5.4375 -6.304688 5.625 -6.640625 C 5.820312 -6.972656 5.921875 -7.3125 5.921875 -7.65625 C 5.921875 -8.125 5.722656 -8.359375 5.328125 -8.359375 Z M 5.328125 -8.359375 "/></g></g></g><g fill="#272727" fill-opacity="1"><g transform="translate(515.321893, 213.670842)"><g/></g></g><g fill="#272727" fill-opacity="1"><g transform="translate(519.987284, 213.670842)"><g><path d="M -0.25 -0.671875 C 0.125 -0.671875 0.429688 -0.695312 0.671875 -0.75 C 0.910156 -0.8125 1.113281 -0.921875 1.28125 -1.078125 C 1.445312 -1.234375 1.582031 -1.4375 1.6875 -1.6875 C 1.800781 -1.9375 1.910156 -2.269531 2.015625 -2.6875 L 3.984375 -10.171875 C 4.066406 -10.460938 4.125 -10.710938 4.15625 -10.921875 C 4.195312 -11.140625 4.21875 -11.328125 4.21875 -11.484375 C 4.21875 -11.859375 4.085938 -12.101562 3.828125 -12.21875 C 3.566406 -12.332031 3.132812 -12.390625 2.53125 -12.390625 L 2.71875 -13.0625 L 11.984375 -13.0625 L 11.984375 -9.640625 L 11.328125 -9.640625 C 11.179688 -10.179688 11.019531 -10.625 10.84375 -10.96875 C 10.664062 -11.3125 10.457031 -11.582031 10.21875 -11.78125 C 9.988281 -11.976562 9.726562 -12.113281 9.4375 -12.1875 C 9.15625 -12.269531 8.835938 -12.3125 8.484375 -12.3125 L 6.28125 -12.3125 L 4.953125 -7.28125 L 6.03125 -7.28125 C 6.332031 -7.28125 6.585938 -7.304688 6.796875 -7.359375 C 7.015625 -7.421875 7.210938 -7.519531 7.390625 -7.65625 C 7.566406 -7.800781 7.726562 -8 7.875 -8.25 C 8.03125 -8.5 8.195312 -8.820312 8.375 -9.21875 L 9.015625 -9.21875 L 8 -4.1875 L 7.3125 -4.1875 C 7.34375 -4.53125 7.359375 -4.828125 7.359375 -5.078125 C 7.359375 -5.585938 7.257812 -5.957031 7.0625 -6.1875 C 6.875 -6.414062 6.519531 -6.53125 6 -6.53125 L 4.734375 -6.53125 L 3.765625 -2.890625 C 3.660156 -2.515625 3.609375 -2.195312 3.609375 -1.9375 C 3.609375 -1.53125 3.789062 -1.226562 4.15625 -1.03125 C 4.519531 -0.832031 5.144531 -0.734375 6.03125 -0.734375 C 6.664062 -0.734375 7.222656 -0.78125 7.703125 -0.875 C 8.191406 -0.976562 8.613281 -1.140625 8.96875 -1.359375 C 9.320312 -1.585938 9.628906 -1.878906 9.890625 -2.234375 C 10.160156 -2.597656 10.414062 -3.046875 10.65625 -3.578125 L 11.453125 -3.578125 L 10.125 0 L -0.4375 0 Z M -0.25 -0.671875 "/></g></g></g><g fill="#272727" fill-opacity="1"><g transform="translate(532.541435, 213.670842)"><g><path d="M 7.21875 -8.28125 C 6.9375 -8.28125 6.625 -8.140625 6.28125 -7.859375 C 5.9375 -7.585938 5.585938 -7.222656 5.234375 -6.765625 C 4.878906 -6.304688 4.535156 -5.78125 4.203125 -5.1875 C 3.878906 -4.601562 3.601562 -4.003906 3.375 -3.390625 L 2.125 0 L 0.625 0 L 1.890625 -3.890625 C 2.085938 -4.503906 2.253906 -5.03125 2.390625 -5.46875 C 2.523438 -5.914062 2.632812 -6.289062 2.71875 -6.59375 C 2.800781 -6.894531 2.859375 -7.140625 2.890625 -7.328125 C 2.929688 -7.515625 2.953125 -7.660156 2.953125 -7.765625 C 2.953125 -8.078125 2.859375 -8.234375 2.671875 -8.234375 C 2.546875 -8.234375 2.394531 -8.148438 2.21875 -7.984375 C 2.050781 -7.828125 1.878906 -7.617188 1.703125 -7.359375 C 1.523438 -7.109375 1.359375 -6.816406 1.203125 -6.484375 C 1.046875 -6.160156 0.910156 -5.832031 0.796875 -5.5 L 0.28125 -5.75 C 0.675781 -6.914062 1.117188 -7.773438 1.609375 -8.328125 C 2.109375 -8.878906 2.675781 -9.15625 3.3125 -9.15625 C 3.675781 -9.15625 3.929688 -9.050781 4.078125 -8.84375 C 4.234375 -8.644531 4.3125 -8.304688 4.3125 -7.828125 C 4.3125 -7.242188 4.210938 -6.726562 4.015625 -6.28125 L 4.078125 -6.234375 C 4.648438 -7.242188 5.234375 -7.984375 5.828125 -8.453125 C 6.421875 -8.921875 7.066406 -9.15625 7.765625 -9.15625 C 8.265625 -9.15625 8.644531 -9.035156 8.90625 -8.796875 C 9.164062 -8.566406 9.296875 -8.226562 9.296875 -7.78125 C 9.296875 -7.632812 9.28125 -7.472656 9.25 -7.296875 C 9.226562 -7.117188 9.179688 -6.898438 9.109375 -6.640625 C 9.046875 -6.390625 8.953125 -6.085938 8.828125 -5.734375 C 8.710938 -5.378906 8.570312 -4.953125 8.40625 -4.453125 C 8.144531 -3.679688 7.925781 -3.035156 7.75 -2.515625 C 7.582031 -1.992188 7.5 -1.625 7.5 -1.40625 C 7.5 -1.238281 7.554688 -1.15625 7.671875 -1.15625 C 7.828125 -1.15625 8.054688 -1.285156 8.359375 -1.546875 C 8.671875 -1.804688 9.085938 -2.222656 9.609375 -2.796875 L 10.046875 -2.5625 C 9.867188 -2.21875 9.632812 -1.882812 9.34375 -1.5625 C 9.050781 -1.25 8.75 -0.960938 8.4375 -0.703125 C 8.125 -0.441406 7.816406 -0.226562 7.515625 -0.0625 C 7.210938 0.09375 6.945312 0.171875 6.71875 0.171875 C 6.4375 0.171875 6.210938 0.046875 6.046875 -0.203125 C 5.878906 -0.453125 5.796875 -0.78125 5.796875 -1.1875 C 5.796875 -1.34375 5.8125 -1.503906 5.84375 -1.671875 C 5.875 -1.835938 5.929688 -2.070312 6.015625 -2.375 C 6.109375 -2.675781 6.242188 -3.082031 6.421875 -3.59375 C 6.597656 -4.113281 6.835938 -4.800781 7.140625 -5.65625 C 7.242188 -5.945312 7.328125 -6.191406 7.390625 -6.390625 C 7.460938 -6.597656 7.519531 -6.773438 7.5625 -6.921875 C 7.601562 -7.078125 7.628906 -7.210938 7.640625 -7.328125 C 7.660156 -7.441406 7.671875 -7.550781 7.671875 -7.65625 C 7.671875 -8.070312 7.519531 -8.28125 7.21875 -8.28125 Z M 7.21875 -8.28125 "/></g></g></g><g fill="#272727" fill-opacity="1"><g transform="translate(543.178534, 213.670842)"><g><path d="M 7.375 1.234375 C 7.375 1.722656 7.269531 2.160156 7.0625 2.546875 C 6.851562 2.941406 6.550781 3.273438 6.15625 3.546875 C 5.769531 3.828125 5.300781 4.039062 4.75 4.1875 C 4.195312 4.332031 3.578125 4.40625 2.890625 4.40625 C 2.265625 4.40625 1.695312 4.347656 1.1875 4.234375 C 0.675781 4.128906 0.238281 3.96875 -0.125 3.75 C -0.488281 3.53125 -0.769531 3.273438 -0.96875 2.984375 C -1.164062 2.703125 -1.265625 2.378906 -1.265625 2.015625 C -1.265625 1.554688 -1.113281 1.171875 -0.8125 0.859375 C -0.519531 0.554688 -0.140625 0.40625 0.328125 0.40625 C 0.460938 0.40625 0.59375 0.421875 0.71875 0.453125 C 0.84375 0.492188 1 0.554688 1.1875 0.640625 C 0.550781 0.898438 0.234375 1.394531 0.234375 2.125 C 0.234375 2.59375 0.472656 2.960938 0.953125 3.234375 C 1.441406 3.503906 2.101562 3.640625 2.9375 3.640625 C 3.382812 3.640625 3.800781 3.585938 4.1875 3.484375 C 4.570312 3.390625 4.898438 3.265625 5.171875 3.109375 C 5.453125 2.953125 5.671875 2.773438 5.828125 2.578125 C 5.984375 2.378906 6.0625 2.179688 6.0625 1.984375 C 6.0625 1.671875 5.867188 1.382812 5.484375 1.125 C 5.109375 0.875 4.578125 0.6875 3.890625 0.5625 C 2.648438 0.34375 1.742188 0.09375 1.171875 -0.1875 C 0.597656 -0.46875 0.3125 -0.863281 0.3125 -1.375 C 0.3125 -1.695312 0.453125 -1.972656 0.734375 -2.203125 C 1.023438 -2.429688 1.546875 -2.660156 2.296875 -2.890625 L 2.328125 -2.953125 C 1.460938 -3.566406 1.03125 -4.351562 1.03125 -5.3125 C 1.03125 -5.832031 1.140625 -6.328125 1.359375 -6.796875 C 1.578125 -7.265625 1.867188 -7.675781 2.234375 -8.03125 C 2.597656 -8.382812 3.023438 -8.664062 3.515625 -8.875 C 4.015625 -9.082031 4.535156 -9.1875 5.078125 -9.1875 C 5.910156 -9.1875 6.609375 -8.878906 7.171875 -8.265625 C 7.703125 -8.859375 8.21875 -9.15625 8.71875 -9.15625 C 9.082031 -9.15625 9.398438 -9.046875 9.671875 -8.828125 C 9.941406 -8.609375 10.078125 -8.351562 10.078125 -8.0625 C 10.078125 -7.832031 10 -7.640625 9.84375 -7.484375 C 9.695312 -7.335938 9.507812 -7.265625 9.28125 -7.265625 C 9.113281 -7.265625 8.976562 -7.300781 8.875 -7.375 C 8.78125 -7.445312 8.695312 -7.523438 8.625 -7.609375 C 8.5625 -7.703125 8.488281 -7.785156 8.40625 -7.859375 C 8.320312 -7.929688 8.207031 -7.96875 8.0625 -7.96875 C 7.976562 -7.96875 7.898438 -7.953125 7.828125 -7.921875 C 7.765625 -7.898438 7.644531 -7.828125 7.46875 -7.703125 C 7.519531 -7.546875 7.554688 -7.394531 7.578125 -7.25 C 7.609375 -7.113281 7.625 -6.9375 7.625 -6.71875 C 7.625 -5.476562 7.273438 -4.484375 6.578125 -3.734375 C 5.890625 -2.992188 4.941406 -2.582031 3.734375 -2.5 C 3.191406 -2.445312 2.800781 -2.375 2.5625 -2.28125 C 2.332031 -2.195312 2.21875 -2.066406 2.21875 -1.890625 C 2.21875 -1.648438 2.34375 -1.46875 2.59375 -1.34375 C 2.851562 -1.226562 3.175781 -1.128906 3.5625 -1.046875 C 3.945312 -0.972656 4.359375 -0.894531 4.796875 -0.8125 C 5.242188 -0.738281 5.660156 -0.625 6.046875 -0.46875 C 6.429688 -0.3125 6.75 -0.101562 7 0.15625 C 7.25 0.425781 7.375 0.785156 7.375 1.234375 Z M 3.8125 -3.234375 C 4.082031 -3.234375 4.347656 -3.34375 4.609375 -3.5625 C 4.867188 -3.78125 5.101562 -4.066406 5.3125 -4.421875 C 5.53125 -4.773438 5.695312 -5.175781 5.8125 -5.625 C 5.9375 -6.082031 6 -6.550781 6 -7.03125 C 6 -7.476562 5.894531 -7.832031 5.6875 -8.09375 C 5.488281 -8.363281 5.226562 -8.5 4.90625 -8.5 C 4.644531 -8.5 4.378906 -8.382812 4.109375 -8.15625 C 3.835938 -7.925781 3.585938 -7.628906 3.359375 -7.265625 C 3.140625 -6.898438 2.960938 -6.488281 2.828125 -6.03125 C 2.691406 -5.570312 2.625 -5.125 2.625 -4.6875 C 2.625 -4.25 2.734375 -3.894531 2.953125 -3.625 C 3.171875 -3.363281 3.457031 -3.234375 3.8125 -3.234375 Z M 3.8125 -3.234375 "/></g></g></g><g fill="#272727" fill-opacity="1"><g transform="translate(552.509327, 213.670842)"><g><path d="M 2.21875 -5.59375 C 2.375 -6.039062 2.488281 -6.398438 2.5625 -6.671875 C 2.632812 -6.941406 2.671875 -7.15625 2.671875 -7.3125 C 2.671875 -7.46875 2.644531 -7.570312 2.59375 -7.625 C 2.539062 -7.675781 2.484375 -7.703125 2.421875 -7.703125 C 2.296875 -7.703125 2.160156 -7.640625 2.015625 -7.515625 C 1.867188 -7.398438 1.722656 -7.265625 1.578125 -7.109375 C 1.429688 -6.953125 1.300781 -6.789062 1.1875 -6.625 C 1.070312 -6.46875 0.992188 -6.347656 0.953125 -6.265625 L 0.453125 -6.5625 C 0.585938 -6.8125 0.773438 -7.085938 1.015625 -7.390625 C 1.265625 -7.703125 1.539062 -7.988281 1.84375 -8.25 C 2.15625 -8.507812 2.472656 -8.722656 2.796875 -8.890625 C 3.128906 -9.066406 3.441406 -9.15625 3.734375 -9.15625 C 4.015625 -9.15625 4.222656 -9.070312 4.359375 -8.90625 C 4.503906 -8.75 4.578125 -8.457031 4.578125 -8.03125 C 4.578125 -7.695312 4.476562 -7.253906 4.28125 -6.703125 C 4.082031 -6.148438 3.828125 -5.4375 3.515625 -4.5625 L 2.890625 -2.84375 C 2.859375 -2.789062 2.820312 -2.703125 2.78125 -2.578125 C 2.75 -2.460938 2.710938 -2.335938 2.671875 -2.203125 C 2.628906 -2.078125 2.59375 -1.953125 2.5625 -1.828125 C 2.539062 -1.703125 2.53125 -1.601562 2.53125 -1.53125 C 2.53125 -1.425781 2.554688 -1.332031 2.609375 -1.25 C 2.671875 -1.175781 2.765625 -1.140625 2.890625 -1.140625 C 3.054688 -1.140625 3.226562 -1.207031 3.40625 -1.34375 C 3.59375 -1.488281 3.769531 -1.65625 3.9375 -1.84375 C 4.101562 -2.039062 4.253906 -2.238281 4.390625 -2.4375 C 4.523438 -2.632812 4.628906 -2.789062 4.703125 -2.90625 L 5.203125 -2.609375 C 5.066406 -2.335938 4.882812 -2.035156 4.65625 -1.703125 C 4.425781 -1.378906 4.160156 -1.078125 3.859375 -0.796875 C 3.566406 -0.523438 3.242188 -0.296875 2.890625 -0.109375 C 2.546875 0.078125 2.1875 0.171875 1.8125 0.171875 C 1.488281 0.171875 1.242188 0.0859375 1.078125 -0.078125 C 0.910156 -0.253906 0.828125 -0.539062 0.828125 -0.9375 C 0.828125 -1.257812 0.878906 -1.609375 0.984375 -1.984375 C 1.097656 -2.367188 1.253906 -2.847656 1.453125 -3.421875 Z M 4.71875 -11.953125 C 4.4375 -11.953125 4.191406 -12.046875 3.984375 -12.234375 C 3.773438 -12.421875 3.671875 -12.671875 3.671875 -12.984375 C 3.671875 -13.285156 3.769531 -13.539062 3.96875 -13.75 C 4.175781 -13.96875 4.425781 -14.078125 4.71875 -14.078125 C 5.03125 -14.078125 5.285156 -13.96875 5.484375 -13.75 C 5.691406 -13.539062 5.796875 -13.289062 5.796875 -13 C 5.796875 -12.707031 5.6875 -12.457031 5.46875 -12.25 C 5.257812 -12.050781 5.007812 -11.953125 4.71875 -11.953125 Z M 4.71875 -11.953125 "/></g></g></g><g fill="#272727" fill-opacity="1"><g transform="translate(558.345311, 213.670842)"><g><path d="M 7.21875 -8.28125 C 6.9375 -8.28125 6.625 -8.140625 6.28125 -7.859375 C 5.9375 -7.585938 5.585938 -7.222656 5.234375 -6.765625 C 4.878906 -6.304688 4.535156 -5.78125 4.203125 -5.1875 C 3.878906 -4.601562 3.601562 -4.003906 3.375 -3.390625 L 2.125 0 L 0.625 0 L 1.890625 -3.890625 C 2.085938 -4.503906 2.253906 -5.03125 2.390625 -5.46875 C 2.523438 -5.914062 2.632812 -6.289062 2.71875 -6.59375 C 2.800781 -6.894531 2.859375 -7.140625 2.890625 -7.328125 C 2.929688 -7.515625 2.953125 -7.660156 2.953125 -7.765625 C 2.953125 -8.078125 2.859375 -8.234375 2.671875 -8.234375 C 2.546875 -8.234375 2.394531 -8.148438 2.21875 -7.984375 C 2.050781 -7.828125 1.878906 -7.617188 1.703125 -7.359375 C 1.523438 -7.109375 1.359375 -6.816406 1.203125 -6.484375 C 1.046875 -6.160156 0.910156 -5.832031 0.796875 -5.5 L 0.28125 -5.75 C 0.675781 -6.914062 1.117188 -7.773438 1.609375 -8.328125 C 2.109375 -8.878906 2.675781 -9.15625 3.3125 -9.15625 C 3.675781 -9.15625 3.929688 -9.050781 4.078125 -8.84375 C 4.234375 -8.644531 4.3125 -8.304688 4.3125 -7.828125 C 4.3125 -7.242188 4.210938 -6.726562 4.015625 -6.28125 L 4.078125 -6.234375 C 4.648438 -7.242188 5.234375 -7.984375 5.828125 -8.453125 C 6.421875 -8.921875 7.066406 -9.15625 7.765625 -9.15625 C 8.265625 -9.15625 8.644531 -9.035156 8.90625 -8.796875 C 9.164062 -8.566406 9.296875 -8.226562 9.296875 -7.78125 C 9.296875 -7.632812 9.28125 -7.472656 9.25 -7.296875 C 9.226562 -7.117188 9.179688 -6.898438 9.109375 -6.640625 C 9.046875 -6.390625 8.953125 -6.085938 8.828125 -5.734375 C 8.710938 -5.378906 8.570312 -4.953125 8.40625 -4.453125 C 8.144531 -3.679688 7.925781 -3.035156 7.75 -2.515625 C 7.582031 -1.992188 7.5 -1.625 7.5 -1.40625 C 7.5 -1.238281 7.554688 -1.15625 7.671875 -1.15625 C 7.828125 -1.15625 8.054688 -1.285156 8.359375 -1.546875 C 8.671875 -1.804688 9.085938 -2.222656 9.609375 -2.796875 L 10.046875 -2.5625 C 9.867188 -2.21875 9.632812 -1.882812 9.34375 -1.5625 C 9.050781 -1.25 8.75 -0.960938 8.4375 -0.703125 C 8.125 -0.441406 7.816406 -0.226562 7.515625 -0.0625 C 7.210938 0.09375 6.945312 0.171875 6.71875 0.171875 C 6.4375 0.171875 6.210938 0.046875 6.046875 -0.203125 C 5.878906 -0.453125 5.796875 -0.78125 5.796875 -1.1875 C 5.796875 -1.34375 5.8125 -1.503906 5.84375 -1.671875 C 5.875 -1.835938 5.929688 -2.070312 6.015625 -2.375 C 6.109375 -2.675781 6.242188 -3.082031 6.421875 -3.59375 C 6.597656 -4.113281 6.835938 -4.800781 7.140625 -5.65625 C 7.242188 -5.945312 7.328125 -6.191406 7.390625 -6.390625 C 7.460938 -6.597656 7.519531 -6.773438 7.5625 -6.921875 C 7.601562 -7.078125 7.628906 -7.210938 7.640625 -7.328125 C 7.660156 -7.441406 7.671875 -7.550781 7.671875 -7.65625 C 7.671875 -8.070312 7.519531 -8.28125 7.21875 -8.28125 Z M 7.21875 -8.28125 "/></g></g></g><g fill="#272727" fill-opacity="1"><g transform="translate(568.982404, 213.670842)"><g><path d="M 6.296875 -2.25 C 5.304688 -0.632812 4.097656 0.171875 2.671875 0.171875 C 1.890625 0.171875 1.285156 -0.0664062 0.859375 -0.546875 C 0.441406 -1.023438 0.234375 -1.707031 0.234375 -2.59375 C 0.234375 -3.375 0.394531 -4.15625 0.71875 -4.9375 C 1.039062 -5.71875 1.460938 -6.421875 1.984375 -7.046875 C 2.503906 -7.679688 3.085938 -8.191406 3.734375 -8.578125 C 4.378906 -8.960938 5.023438 -9.15625 5.671875 -9.15625 C 6.210938 -9.15625 6.65625 -9.015625 7 -8.734375 C 7.34375 -8.460938 7.515625 -8.113281 7.515625 -7.6875 C 7.515625 -7.289062 7.367188 -6.882812 7.078125 -6.46875 C 6.785156 -6.050781 6.382812 -5.65625 5.875 -5.28125 C 5.375 -4.90625 4.785156 -4.5625 4.109375 -4.25 C 3.441406 -3.945312 2.726562 -3.710938 1.96875 -3.546875 C 1.945312 -3.390625 1.929688 -3.234375 1.921875 -3.078125 C 1.910156 -2.921875 1.90625 -2.765625 1.90625 -2.609375 C 1.90625 -1.378906 2.335938 -0.765625 3.203125 -0.765625 C 3.617188 -0.765625 4.050781 -0.925781 4.5 -1.25 C 4.945312 -1.582031 5.363281 -2.035156 5.75 -2.609375 Z M 5.328125 -8.359375 C 5.035156 -8.359375 4.726562 -8.242188 4.40625 -8.015625 C 4.09375 -7.796875 3.789062 -7.492188 3.5 -7.109375 C 3.21875 -6.734375 2.957031 -6.300781 2.71875 -5.8125 C 2.476562 -5.332031 2.285156 -4.832031 2.140625 -4.3125 C 2.679688 -4.457031 3.179688 -4.648438 3.640625 -4.890625 C 4.109375 -5.128906 4.507812 -5.394531 4.84375 -5.6875 C 5.175781 -5.988281 5.4375 -6.304688 5.625 -6.640625 C 5.820312 -6.972656 5.921875 -7.3125 5.921875 -7.65625 C 5.921875 -8.125 5.722656 -8.359375 5.328125 -8.359375 Z M 5.328125 -8.359375 "/></g></g></g><g fill="#272727" fill-opacity="1"><g transform="translate(576.718479, 213.670842)"><g><path d="M 6.296875 -2.25 C 5.304688 -0.632812 4.097656 0.171875 2.671875 0.171875 C 1.890625 0.171875 1.285156 -0.0664062 0.859375 -0.546875 C 0.441406 -1.023438 0.234375 -1.707031 0.234375 -2.59375 C 0.234375 -3.375 0.394531 -4.15625 0.71875 -4.9375 C 1.039062 -5.71875 1.460938 -6.421875 1.984375 -7.046875 C 2.503906 -7.679688 3.085938 -8.191406 3.734375 -8.578125 C 4.378906 -8.960938 5.023438 -9.15625 5.671875 -9.15625 C 6.210938 -9.15625 6.65625 -9.015625 7 -8.734375 C 7.34375 -8.460938 7.515625 -8.113281 7.515625 -7.6875 C 7.515625 -7.289062 7.367188 -6.882812 7.078125 -6.46875 C 6.785156 -6.050781 6.382812 -5.65625 5.875 -5.28125 C 5.375 -4.90625 4.785156 -4.5625 4.109375 -4.25 C 3.441406 -3.945312 2.726562 -3.710938 1.96875 -3.546875 C 1.945312 -3.390625 1.929688 -3.234375 1.921875 -3.078125 C 1.910156 -2.921875 1.90625 -2.765625 1.90625 -2.609375 C 1.90625 -1.378906 2.335938 -0.765625 3.203125 -0.765625 C 3.617188 -0.765625 4.050781 -0.925781 4.5 -1.25 C 4.945312 -1.582031 5.363281 -2.035156 5.75 -2.609375 Z M 5.328125 -8.359375 C 5.035156 -8.359375 4.726562 -8.242188 4.40625 -8.015625 C 4.09375 -7.796875 3.789062 -7.492188 3.5 -7.109375 C 3.21875 -6.734375 2.957031 -6.300781 2.71875 -5.8125 C 2.476562 -5.332031 2.285156 -4.832031 2.140625 -4.3125 C 2.679688 -4.457031 3.179688 -4.648438 3.640625 -4.890625 C 4.109375 -5.128906 4.507812 -5.394531 4.84375 -5.6875 C 5.175781 -5.988281 5.4375 -6.304688 5.625 -6.640625 C 5.820312 -6.972656 5.921875 -7.3125 5.921875 -7.65625 C 5.921875 -8.125 5.722656 -8.359375 5.328125 -8.359375 Z M 5.328125 -8.359375 "/></g></g></g><g fill="#272727" fill-opacity="1"><g transform="translate(584.454553, 213.670842)"><g><path d="M 0.359375 -6.640625 C 0.484375 -6.921875 0.671875 -7.207031 0.921875 -7.5 C 1.179688 -7.800781 1.457031 -8.070312 1.75 -8.3125 C 2.050781 -8.5625 2.351562 -8.765625 2.65625 -8.921875 C 2.96875 -9.078125 3.238281 -9.15625 3.46875 -9.15625 C 3.738281 -9.15625 3.929688 -9.050781 4.046875 -8.84375 C 4.171875 -8.644531 4.234375 -8.320312 4.234375 -7.875 C 4.234375 -7.695312 4.222656 -7.519531 4.203125 -7.34375 C 4.191406 -7.175781 4.164062 -6.976562 4.125 -6.75 L 4.171875 -6.703125 C 4.304688 -7.023438 4.5 -7.34375 4.75 -7.65625 C 5 -7.976562 5.265625 -8.257812 5.546875 -8.5 C 5.835938 -8.75 6.132812 -8.945312 6.4375 -9.09375 C 6.738281 -9.25 7.019531 -9.328125 7.28125 -9.328125 C 7.601562 -9.328125 7.875 -9.222656 8.09375 -9.015625 C 8.320312 -8.804688 8.4375 -8.550781 8.4375 -8.25 C 8.4375 -7.957031 8.34375 -7.710938 8.15625 -7.515625 C 7.96875 -7.328125 7.726562 -7.234375 7.4375 -7.234375 C 7.25 -7.234375 7.101562 -7.265625 7 -7.328125 C 6.894531 -7.398438 6.800781 -7.472656 6.71875 -7.546875 C 6.632812 -7.617188 6.554688 -7.6875 6.484375 -7.75 C 6.421875 -7.820312 6.34375 -7.859375 6.25 -7.859375 C 6.03125 -7.859375 5.78125 -7.710938 5.5 -7.421875 C 5.21875 -7.128906 4.921875 -6.734375 4.609375 -6.234375 C 4.304688 -5.742188 4.003906 -5.164062 3.703125 -4.5 C 3.410156 -3.832031 3.140625 -3.113281 2.890625 -2.34375 L 2.125 0 L 0.546875 0 L 1.640625 -3.515625 C 1.859375 -4.191406 2.035156 -4.753906 2.171875 -5.203125 C 2.316406 -5.648438 2.425781 -6.019531 2.5 -6.3125 C 2.582031 -6.613281 2.640625 -6.847656 2.671875 -7.015625 C 2.703125 -7.191406 2.71875 -7.34375 2.71875 -7.46875 C 2.71875 -7.71875 2.628906 -7.84375 2.453125 -7.84375 C 2.347656 -7.84375 2.210938 -7.796875 2.046875 -7.703125 C 1.878906 -7.609375 1.71875 -7.492188 1.5625 -7.359375 C 1.40625 -7.222656 1.253906 -7.070312 1.109375 -6.90625 C 0.972656 -6.738281 0.867188 -6.578125 0.796875 -6.421875 Z M 0.359375 -6.640625 "/></g></g></g></svg>